<svg width="24" height="23" viewBox="0 0 24 23" fill="none" xmlns="http://www.w3.org/2000/svg">
<path d="M12.2487 2.07831C15.2969 2.07831 15.7125 2.07831 16.9595 2.07831C18.0679 2.07831 18.6222 2.35542 19.0378 2.49398C19.592 2.77108 20.0077 2.90964 20.4234 3.3253C20.839 3.74096 21.1161 4.15663 21.2547 4.71084C21.3932 5.12651 21.5318 5.68072 21.6703 6.78916C21.6703 8.03615 21.6703 8.31325 21.6703 11.5C21.6703 14.6867 21.6703 14.9639 21.6703 16.2108C21.6703 17.3193 21.3932 17.8735 21.2547 18.2892C20.9776 18.8434 20.839 19.259 20.4234 19.6747C20.0077 20.0904 19.592 20.3675 19.0378 20.506C18.6222 20.6446 18.0679 20.7831 16.9595 20.9217C15.7125 20.9217 15.4354 20.9217 12.2487 20.9217C9.06191 20.9217 8.7848 20.9217 7.53782 20.9217C6.42938 20.9217 5.87516 20.6446 5.4595 20.506C4.90528 20.2289 4.48962 20.0904 4.07396 19.6747C3.6583 19.259 3.38119 18.8434 3.24263 18.2892C3.10408 17.8735 2.96552 17.3193 2.82697 16.2108C2.82697 14.9639 2.82697 14.6867 2.82697 11.5C2.82697 8.31325 2.82697 8.03615 2.82697 6.78916C2.82697 5.68072 3.10408 5.12651 3.24263 4.71084C3.51974 4.15663 3.6583 3.74096 4.07396 3.3253C4.48962 2.90964 4.90528 2.63253 5.4595 2.49398C5.87516 2.35542 6.42938 2.21687 7.53782 2.07831C8.7848 2.07831 9.20047 2.07831 12.2487 2.07831ZM12.2487 0C9.06191 0 8.7848 0 7.53782 0C6.29083 0 5.4595 0.277109 4.76673 0.554218C4.07396 0.831326 3.38119 1.24699 2.68842 1.93976C1.99565 2.63253 1.71854 3.18675 1.30287 4.01807C1.02577 4.71084 0.887211 5.54217 0.748657 6.78916C0.748657 8.03615 0.748657 8.45181 0.748657 11.5C0.748657 14.6867 0.748657 14.9639 0.748657 16.2108C0.748657 17.4578 1.02577 18.2892 1.30287 18.9819C1.57998 19.6747 1.99565 20.3675 2.68842 21.0602C3.38119 21.753 3.93541 22.0301 4.76673 22.4458C5.4595 22.7229 6.29083 22.8614 7.53782 23C8.7848 23 9.20047 23 12.2487 23C15.2969 23 15.7125 23 16.9595 23C18.2065 23 19.0378 22.7229 19.7306 22.4458C20.4234 22.1687 21.1161 21.753 21.8089 21.0602C22.5017 20.3675 22.7788 19.8133 23.1944 18.9819C23.4716 18.2892 23.6101 17.4578 23.7487 16.2108C23.7487 14.9639 23.7487 14.5482 23.7487 11.5C23.7487 8.45181 23.7487 8.03615 23.7487 6.78916C23.7487 5.54217 23.4716 4.71084 23.1944 4.01807C22.9173 3.3253 22.5017 2.63253 21.8089 1.93976C21.1161 1.24699 20.5619 0.96988 19.7306 0.554218C19.0378 0.277109 18.2065 0.138554 16.9595 0C15.7125 0 15.4354 0 12.2487 0Z" fill="white"/>
<path d="M12.2487 5.54217C8.92336 5.54217 6.29083 8.1747 6.29083 11.5C6.29083 14.8253 8.92336 17.4578 12.2487 17.4578C15.574 17.4578 18.2065 14.8253 18.2065 11.5C18.2065 8.1747 15.574 5.54217 12.2487 5.54217ZM12.2487 15.3795C10.1703 15.3795 8.36914 13.7169 8.36914 11.5C8.36914 9.42169 10.0318 7.62048 12.2487 7.62048C14.327 7.62048 16.1282 9.28313 16.1282 11.5C16.1282 13.5783 14.327 15.3795 12.2487 15.3795Z" fill="white"/>
<path d="M18.345 6.78916C19.1103 6.78916 19.7306 6.16883 19.7306 5.40362C19.7306 4.6384 19.1103 4.01807 18.345 4.01807C17.5798 4.01807 16.9595 4.6384 16.9595 5.40362C16.9595 6.16883 17.5798 6.78916 18.345 6.78916Z" fill="white"/>
</svg>
