<svg xmlns="http://www.w3.org/2000/svg" width="428" height="1267" fill="none" xmlns:v="https://vecta.io/nano"><g filter="url(#A)"><rect x="25" y="44" width="377" height="1179" rx="20" fill="#fff" fill-opacity=".07" shape-rendering="crispEdges"/><rect x="25.3" y="44.3" width="376.4" height="1178.4" rx="19.7" stroke="#fff" stroke-width=".6" shape-rendering="crispEdges"/></g><g fill="#fff"><path d="M74.92 121h5.12v-7.936h8.832V121h5.12v-7.2c0-1.76-.96-2.72-2.72-2.72h-3.296v-1.28c2.72-.32 5.728-1.344 5.728-5.056 0-5.056-4.672-6.304-10.048-6.304H74.92V121zm5.12-12.416v-5.664h3.616c3.04 0 4.928 0 4.928 2.848 0 2.816-1.888 2.816-4.928 2.816H80.04zm16.185 1.12c0 6.592 4.352 11.616 11.52 11.616 7.136 0 11.488-5.024 11.488-11.616 0-6.56-4.352-11.584-11.488-11.584-7.168 0-11.52 5.024-11.52 11.584zm5.12 0c0-4.32 2.144-7.104 6.4-7.104s6.368 2.784 6.368 7.104c0 4.352-2.112 7.136-6.368 7.136s-6.4-2.784-6.4-7.136zM137.978 121h5.184l-6.528-22.56h-10.56L119.578 121h5.184l2.016-7.232h9.152l2.048 7.232zm-9.952-11.712l2.688-9.568h1.28l2.688 9.568h-6.656zM153.74 98.44h-8.32V121h8.32c6.016 0 12.288-1.568 12.288-11.296 0-9.696-6.272-11.264-12.288-11.264zm0 18.08h-3.2v-13.6h3.2c4 0 7.168.32 7.168 6.784 0 6.496-3.168 6.816-7.168 6.816zm15.18 4.48h5.12v-18.08l-.96-3.2h1.28l3.616 21.28h9.92l3.616-21.28h1.28l-.96 3.2V121h5.12V98.44h-10.08l-3.296 21.28h-1.28L179 98.44h-10.08V121zm48.683 0h5.184l-6.528-22.56h-10.56L199.203 121h5.184l2.016-7.232h9.152l2.048 7.232zm-9.952-11.712l2.688-9.568h1.28l2.688 9.568h-6.656zm25.49-10.848h-8.096V121h5.12v-6.72h2.976c5.696 0 10.048-1.088 10.048-7.936 0-6.816-4.352-7.904-10.048-7.904zm.32 11.36h-3.296v-6.88h3.296c3.04 0 4.608.32 4.608 3.424 0 3.136-1.568 3.456-4.608 3.456z"/><circle cx="75" cy="1161" r="5"/><path d="M99.756 1159.76c0 2.48 1.464 4.36 3.96 4.36 2.472 0 3.936-1.88 3.936-4.36 0-2.46-1.464-4.34-3.936-4.34-2.496 0-3.96 1.88-3.96 4.34zm.984 0c0-2.01.972-3.5 2.976-3.5 1.992 0 2.952 1.49 2.952 3.5 0 2.03-.96 3.52-2.952 3.52-2.004 0-2.976-1.49-2.976-3.52zm10.688-4.22h-2.376v8.46h.984v-2.92h1.392c2.136 0 3.492-.56 3.492-2.78 0-2.21-1.356-2.76-3.492-2.76zm.012 4.7h-1.404v-3.86h1.404c1.44 0 2.496.26 2.496 1.92 0 1.68-1.056 1.94-2.496 1.94zm4.76 3.76h5.244v-.84h-4.26v-2.98h3.66v-.84h-3.66v-2.96h4.26v-.84H116.2v8.46zm6.645 0h.984v-7.48l-.156-.7h.276l4.212 8.18h1.98v-8.46h-.972v7.48l.156.7h-.276l-4.224-8.18h-1.98v8.46zm12.563-8.46l2.736 8.46h2.016l2.724-8.46h-.972l-2.628 8.18h-.276l-2.616-8.18h-.984zm8.531 8.46h.984v-3.4h4.248v3.4h.984v-3.18c0-.44-.192-.64-.672-.64h-1.008v-.28c.912-.16 1.572-.72 1.572-2 0-1.89-1.284-2.36-3.3-2.36h-2.808v8.46zm.984-4.24v-3.38h1.824c1.44 0 2.315.13 2.315 1.69 0 1.55-.875 1.69-2.315 1.69h-1.824zm13.657-4.22h-2.688v8.46h2.688c2.052 0 4.236-.59 4.236-4.24 0-3.63-2.184-4.22-4.236-4.22zm0 7.62h-1.704v-6.78h1.704c1.5 0 3.252.26 3.252 3.38 0 3.14-1.752 3.4-3.252 3.4zm5.632.84h5.244v-.84h-4.26v-2.98h3.66v-.84h-3.66v-2.96h4.26v-.84h-5.244v8.46zm6.282-8.46l2.736 8.46h2.016l2.724-8.46h-.972l-2.628 8.18h-.276l-2.616-8.18h-.984zm8.53 8.46h5.244v-.84h-4.26v-2.98h3.66v-.84h-3.66v-2.96h4.26v-.84h-5.244v8.46zm7.377.12l4.512-.12v-.84l-4.26.12v-7.74h-.984v7.86c0 .46.264.73.732.72zm4.703-4.36c0 2.48 1.464 4.36 3.96 4.36 2.472 0 3.936-1.88 3.936-4.36 0-2.46-1.464-4.34-3.936-4.34-2.496 0-3.96 1.88-3.96 4.34zm.984 0c0-2.01.972-3.5 2.976-3.5 1.992 0 2.952 1.49 2.952 3.5 0 2.03-.96 3.52-2.952 3.52-2.004 0-2.976-1.49-2.976-3.52zm10.687-4.22h-2.376v8.46h.984v-2.92h1.392c2.136 0 3.492-.56 3.492-2.78 0-2.21-1.356-2.76-3.492-2.76zm.012 4.7h-1.404v-3.86h1.404c1.44 0 2.496.26 2.496 1.92 0 1.68-1.056 1.94-2.496 1.94zm4.761 3.76h.984v-7.48l-.156-.7h.276l2.424 8.18h1.98l2.424-8.18h.288l-.168.7v7.48h.984v-8.46h-1.968l-2.412 8.18h-.276l-2.4-8.18h-1.98v8.46zm10.652 0h5.244v-.84h-4.26v-2.98h3.66v-.84h-3.66v-2.96h4.26v-.84H218.2v8.46zm6.645 0h.984v-7.48l-.156-.7h.276l4.212 8.18h1.98v-8.46h-.972v7.48l.156.7h-.276l-4.224-8.18h-1.98v8.46zm15.316-8.46h-6.852v.84h2.952v7.62h.972v-7.62h2.928v-.84zm5.391 8.46h.984v-3.4l3.996-.24v-.85l-3.996.24v-3.37h4.56v-.84h-5.544v8.46zm6.243-4.24c0 2.48 1.464 4.36 3.96 4.36 2.472 0 3.936-1.88 3.936-4.36 0-2.46-1.464-4.34-3.936-4.34-2.496 0-3.96 1.88-3.96 4.34zm.984 0c0-2.01.972-3.5 2.976-3.5 1.992 0 2.952 1.49 2.952 3.5 0 2.03-.96 3.52-2.952 3.52-2.004 0-2.976-1.49-2.976-3.52zm8.312 4.24h.984v-3.4h4.248v3.4h.984v-3.18c0-.44-.192-.64-.672-.64h-1.008v-.28c.912-.16 1.572-.72 1.572-2 0-1.89-1.284-2.36-3.3-2.36h-2.808v8.46zm.984-4.24v-3.38h1.824c1.44 0 2.316.13 2.316 1.69 0 1.55-.876 1.69-2.316 1.69h-1.824zm10.849 0c0 2.48 1.464 4.36 3.96 4.36 2.472 0 3.936-1.88 3.936-4.36 0-2.46-1.464-4.34-3.936-4.34-2.496 0-3.96 1.88-3.96 4.34zm.984 0c0-2.01.972-3.5 2.976-3.5 1.992 0 2.952 1.49 2.952 3.5 0 2.03-.96 3.52-2.952 3.52-2.004 0-2.976-1.49-2.976-3.52zm7.586-4.22l1.812 8.46h2.004l1.728-8.18h.276l1.74 8.18h2.004l1.8-8.46h-.936l-1.728 8.18h-.288l-1.716-8.18h-2.028l-1.716 8.18h-.288l-1.728-8.18h-.936zm12.398 8.46h.984v-7.48l-.156-.7h.276l4.212 8.18h1.98v-8.46h-.972v7.48l.156.7h-.276l-4.224-8.18h-1.98v8.46zm8.918 0h5.244v-.84h-4.26v-2.98h3.66v-.84h-3.66v-2.96h4.26v-.84h-5.244v8.46zm6.644 0h.984v-3.4h4.248v3.4h.984v-3.18c0-.44-.192-.64-.672-.64h-1.008v-.28c.912-.16 1.572-.72 1.572-2 0-1.89-1.284-2.36-3.3-2.36h-2.808v8.46zm.984-4.24v-3.38h1.824c1.44 0 2.316.13 2.316 1.69 0 1.55-.876 1.69-2.316 1.69h-1.824zm13.564 2.1c0-1.76-1.92-2.22-3.576-2.73-1.392-.43-2.136-.76-2.136-1.65 0-.93.852-1.22 2.016-1.22 1.296 0 2.364.62 2.364 2.06h.984c0-1.38-.852-2.9-3.348-2.9-2.088 0-3 .79-3 2.09 0 1.5 1.212 1.95 2.88 2.46 1.344.39 2.832.66 2.832 1.94 0 1.02-.828 1.37-2.268 1.37-1.776 0-2.844-.44-2.844-2.45h-.984c0 1.98.876 3.29 3.828 3.29 2.496 0 3.252-1 3.252-2.26z"/><circle cx="75" cy="1119" r="5"/><path d="M100.608 1114.12l4.512-.12v-.84l-4.26.12v-7.74h-.984v7.86c0 .46.264.73.732.72zm11.808-.12h.972l-2.724-8.46h-2.016l-2.736 8.46h.984l1.056-3.31h3.396l1.068 3.31zm-4.188-4.15l1.284-4.03h.276l1.296 4.03h-2.856zm5.846 1.01c0 2.11 1.044 3.26 3.348 3.26 2.316 0 3.36-1.15 3.36-3.26v-5.32h-.984v5.16c0 1.72-.612 2.58-2.376 2.58s-2.364-.86-2.364-2.58v-5.16h-.984v5.32zm8.197 3.14h.984v-7.48l-.156-.7h.276l4.212 8.18h1.98v-8.46h-.972v7.48l.156.7h-.276l-4.224-8.18h-1.98v8.46zm8.669-4.24c0 2.48 1.476 4.36 3.96 4.36 2.16 0 3.576-1.3 3.828-3.4h-.984c-.192 1.62-1.188 2.56-2.844 2.56-1.968 0-2.976-1.46-2.976-3.52 0-2.04 1.008-3.5 2.976-3.5 1.656 0 2.652.92 2.844 2.54h.984c-.252-2.08-1.668-3.38-3.828-3.38-2.484 0-3.96 1.88-3.96 4.34zm15.166-4.22v3.86h-4.992v-3.86h-.984v8.46h.984v-3.76h4.992v3.76h.972v-8.46h-.972zm6.595 4.22c0 2.48 1.464 4.36 3.96 4.36 2.472 0 3.936-1.88 3.936-4.36 0-2.46-1.464-4.34-3.936-4.34-2.496 0-3.96 1.88-3.96 4.34zm.984 0c0-2.01.972-3.5 2.976-3.5 1.992 0 2.952 1.49 2.952 3.5 0 2.03-.96 3.52-2.952 3.52-2.004 0-2.976-1.49-2.976-3.52zm8.312 4.24h.984v-3.4l3.996-.24v-.85l-3.996.24v-3.37h4.56v-.84h-5.544v8.46zm11.039 0h2.784c2.052 0 3.336-.54 3.336-2.24 0-1.52-1.02-2.04-2.316-2.07v-.29c.876-.06 1.692-.56 1.692-1.78 0-1.67-1.188-2.08-3.252-2.08h-2.244v8.46zm.984-4.82v-2.8h1.296c1.38 0 2.232.08 2.232 1.39 0 1.2-.852 1.41-2.232 1.41h-1.296zm0 3.98v-3.14h1.836c1.44 0 2.316.33 2.316 1.57 0 1.33-.876 1.57-2.316 1.57h-1.836zm6.504.84h.984v-3.4h4.248v3.4h.984v-3.18c0-.44-.192-.64-.672-.64h-1.008v-.28c.912-.16 1.572-.72 1.572-2 0-1.89-1.284-2.36-3.3-2.36h-2.808v8.46zm.984-4.24v-3.38h1.824c1.44 0 2.316.13 2.316 1.69 0 1.55-.876 1.69-2.316 1.69h-1.824zm12.986 4.24h.972l-2.724-8.46h-2.016l-2.736 8.46h.984l1.056-3.31h3.396l1.068 3.31zm-4.188-4.15l1.284-4.03h.276l1.296 4.03h-2.856zm6.332 4.15h.984v-7.48l-.156-.7h.276l4.212 8.18h1.98v-8.46h-.972v7.48l.156.7h-.276l-4.224-8.18h-1.98v8.46zm11.606-8.46h-2.688v8.46h2.688c2.052 0 4.236-.59 4.236-4.24 0-3.63-2.184-4.22-4.236-4.22zm0 7.62h-1.704v-6.78h1.704c1.5 0 3.252.26 3.252 3.38 0 3.14-1.752 3.4-3.252 3.4zm16.571-1.3c0-1.76-1.92-2.22-3.576-2.73-1.392-.43-2.136-.76-2.136-1.65 0-.93.852-1.22 2.016-1.22 1.296 0 2.364.62 2.364 2.06h.984c0-1.38-.852-2.9-3.348-2.9-2.088 0-3 .79-3 2.09 0 1.5 1.212 1.95 2.88 2.46 1.344.39 2.832.66 2.832 1.94 0 1.02-.828 1.37-2.268 1.37-1.776 0-2.844-.44-2.844-2.45h-.984c0 1.98.876 3.29 3.828 3.29 2.496 0 3.252-1 3.252-2.26zm7.037-6.32H225v.84h2.952v7.62h.972v-7.62h2.928v-.84zm.15 4.22c0 2.48 1.464 4.36 3.96 4.36 2.472 0 3.936-1.88 3.936-4.36 0-2.46-1.464-4.34-3.936-4.34-2.496 0-3.96 1.88-3.96 4.34zm.984 0c0-2.01.972-3.5 2.976-3.5 1.992 0 2.952 1.49 2.952 3.5 0 2.03-.96 3.52-2.952 3.52-2.004 0-2.976-1.49-2.976-3.52zm8.312 4.24h.984v-3.4h4.248v3.4h.984v-3.18c0-.44-.192-.64-.672-.64h-1.008v-.28c.912-.16 1.572-.72 1.572-2 0-1.89-1.284-2.36-3.3-2.36h-2.808v8.46zm.984-4.24v-3.38h1.824c1.44 0 2.316.13 2.316 1.69 0 1.55-.876 1.69-2.316 1.69h-1.824zm6.844 4.24h5.244v-.84h-4.26v-2.98h3.66v-.84h-3.66v-2.96h4.26v-.84h-5.244v8.46zm13.247-2.14c0-1.76-1.92-2.22-3.576-2.73-1.392-.43-2.136-.76-2.136-1.65 0-.93.852-1.22 2.016-1.22 1.296 0 2.364.62 2.364 2.06h.984c0-1.38-.852-2.9-3.348-2.9-2.088 0-3 .79-3 2.09 0 1.5 1.212 1.95 2.88 2.46 1.344.39 2.832.66 2.832 1.94 0 1.02-.828 1.37-2.268 1.37-1.776 0-2.844-.44-2.844-2.45h-.984c0 1.98.876 3.29 3.828 3.29 2.496 0 3.252-1 3.252-2.26zm11.398 2.14h.972l-2.724-8.46h-2.016l-2.736 8.46h.984l1.056-3.31h3.396l1.068 3.31zm-4.188-4.15l1.284-4.03h.276l1.296 4.03h-2.856zm6.332 4.15h.984v-7.48l-.156-.7h.276l4.212 8.18h1.98v-8.46h-.972v7.48l.156.7h-.276l-4.224-8.18h-1.98v8.46zm11.606-8.46h-2.688v8.46h2.688c2.052 0 4.236-.59 4.236-4.24 0-3.63-2.184-4.22-4.236-4.22zm0 7.62h-1.704v-6.78h1.704c1.5 0 3.252.26 3.252 3.38 0 3.14-1.752 3.4-3.252 3.4zM99.876 1130h5.244v-.84h-4.26v-2.98h3.66v-.84h-3.66v-2.96h4.26v-.84h-5.244v8.46zm6.282 0h1.128l2.592-3.65 2.604 3.65h1.116l-2.94-4.06v-.36l2.94-4.04h-1.116l-2.604 3.64-2.592-3.64h-1.128l2.94 4.04v.36l-2.94 4.06zm10.953-8.46h-2.376v8.46h.984v-2.92h1.392c2.136 0 3.492-.56 3.492-2.78 0-2.21-1.356-2.76-3.492-2.76zm.012 4.7h-1.404v-3.86h1.404c1.44 0 2.496.26 2.496 1.92 0 1.68-1.056 1.94-2.496 1.94zm4.761 3.76h5.244v-.84h-4.26v-2.98h3.66v-.84h-3.66v-2.96h4.26v-.84h-5.244v8.46zm6.644 0h.984v-3.4h4.248v3.4h.984v-3.18c0-.44-.192-.64-.672-.64h-1.008v-.28c.912-.16 1.572-.72 1.572-2 0-1.89-1.284-2.36-3.3-2.36h-2.808v8.46zm.984-4.24v-3.38h1.824c1.44 0 2.316.13 2.316 1.69 0 1.55-.876 1.69-2.316 1.69h-1.824zm11.395-3.38v-.84h-4.764v.84h1.896v6.78h-1.896v.84h4.764v-.84h-1.884v-6.78h1.884zm1.496 7.62h5.244v-.84h-4.26v-2.98h3.66v-.84h-3.66v-2.96h4.26v-.84h-5.244v8.46zm6.645 0h.984v-7.48l-.156-.7h.276l4.212 8.18h1.98v-8.46h-.972v7.48l.156.7h-.276l-4.224-8.18h-1.98v8.46zm15.316-8.46h-6.852v.84h2.952v7.62h.972v-7.62h2.928v-.84zm6.051.84v-.84h-4.764v.84h1.896v6.78h-1.896v.84h4.764v-.84h-1.884v-6.78h1.884zm7.661 7.62h.972l-2.724-8.46h-2.016l-2.736 8.46h.984l1.056-3.31h3.396l1.068 3.31zm-4.188-4.15l1.284-4.03h.276l1.296 4.03h-2.856zm7.064 4.27l4.512-.12v-.84l-4.26.12v-7.74h-.984v7.86c0 .46.264.73.732.72zm9.648-4.36c0 2.48 1.476 4.36 3.96 4.36 2.16 0 3.576-1.3 3.828-3.4h-.984c-.192 1.62-1.188 2.56-2.844 2.56-1.968 0-2.976-1.46-2.976-3.52 0-2.04 1.008-3.5 2.976-3.5 1.656 0 2.652.92 2.844 2.54h.984c-.252-2.08-1.668-3.38-3.828-3.38-2.484 0-3.96 1.88-3.96 4.34zm9.19 4.24h5.244v-.84h-4.26v-2.98h3.66v-.84h-3.66v-2.96h4.26v-.84h-5.244v8.46zm6.645 0h.984v-7.48l-.156-.7h.276l4.212 8.18h1.98v-8.46h-.972v7.48l.156.7h-.276l-4.224-8.18h-1.98v8.46zm15.316-8.46h-6.852v.84h2.952v7.62h.972v-7.62h2.928v-.84zm1.172 8.46h5.244v-.84h-4.26v-2.98h3.66v-.84h-3.66v-2.96h4.26v-.84h-5.244v8.46zm6.644 0h.984v-3.4h4.248v3.4h.984v-3.18c0-.44-.192-.64-.672-.64h-1.008v-.28c.912-.16 1.572-.72 1.572-2 0-1.89-1.284-2.36-3.3-2.36h-2.808v8.46zm.984-4.24v-3.38h1.824c1.44 0 2.316.13 2.316 1.69 0 1.55-.876 1.69-2.316 1.69h-1.824zm13.565 2.1c0-1.76-1.92-2.22-3.576-2.73-1.392-.43-2.136-.76-2.136-1.65 0-.93.852-1.22 2.016-1.22 1.296 0 2.364.62 2.364 2.06h.984c0-1.38-.852-2.9-3.348-2.9-2.088 0-3 .79-3 2.09 0 1.5 1.212 1.95 2.88 2.46 1.344.39 2.832.66 2.832 1.94 0 1.02-.828 1.37-2.268 1.37-1.776 0-2.844-.44-2.844-2.45h-.984c0 1.98.876 3.29 3.828 3.29 2.496 0 3.252-1 3.252-2.26z"/><circle cx="75" cy="1069" r="5"/><path d="M106.596 1061.86c0-1.76-1.92-2.22-3.576-2.73-1.392-.43-2.136-.76-2.136-1.65 0-.93.852-1.22 2.016-1.22 1.296 0 2.364.62 2.364 2.06h.984c0-1.38-.852-2.9-3.348-2.9-2.088 0-3 .79-3 2.09 0 1.5 1.212 1.95 2.88 2.46 1.344.39 2.832.66 2.832 1.94 0 1.02-.828 1.37-2.268 1.37-1.776 0-2.844-.44-2.844-2.45h-.984c0 1.98.876 3.29 3.828 3.29 2.496 0 3.252-1 3.252-2.26zm.906-2.1c0 2.48 1.476 4.36 3.96 4.36 2.16 0 3.576-1.3 3.828-3.4h-.984c-.192 1.62-1.188 2.56-2.844 2.56-1.968 0-2.976-1.46-2.976-3.52 0-2.04 1.008-3.5 2.976-3.5 1.656 0 2.652.92 2.844 2.54h.984c-.252-2.08-1.668-3.38-3.828-3.38-2.484 0-3.96 1.88-3.96 4.34zm14.828 4.24h.972l-2.724-8.46h-2.016l-2.736 8.46h.984l1.056-3.31h3.396l1.068 3.31zm-4.188-4.15l1.284-4.03h.276l1.296 4.03h-2.856zm7.064 4.27l4.512-.12v-.84l-4.26.12v-7.74h-.984v7.86c0 .46.264.73.732.72zm10.427-7.74v-.84h-4.764v.84h1.896v6.78h-1.896v.84h4.764v-.84h-1.884v-6.78h1.884zm1.497 7.62h.984v-7.48l-.156-.7h.276l4.212 8.18h1.98v-8.46h-.972v7.48l.156.7h-.276l-4.224-8.18h-1.98v8.46zm8.669-4.24c0 2.5 1.224 4.36 3.708 4.36 2.184 0 3.324-1.4 3.336-4.36h.276l-.156 1.08v3.16h.984v-3.85c0-.45-.228-.66-.72-.66h-4.176v.79h2.892c.036 2.03-.756 3-2.424 3-1.98 0-2.736-1.44-2.736-3.52 0-2.06 1.032-3.5 3.012-3.5 1.668 0 2.376.91 2.568 2.3h.984c-.252-1.84-1.428-3.14-3.552-3.14-2.448 0-3.996 1.86-3.996 4.34zm13.77 0c0 2.48 1.464 4.36 3.96 4.36 2.472 0 3.936-1.88 3.936-4.36 0-2.46-1.464-4.34-3.936-4.34-2.496 0-3.96 1.88-3.96 4.34zm.984 0c0-2.01.972-3.5 2.976-3.5 1.992 0 2.952 1.49 2.952 3.5 0 2.03-.96 3.52-2.952 3.52-2.004 0-2.976-1.49-2.976-3.52zm8.311 4.24h.984v-3.4l3.996-.24v-.85l-3.996.24v-3.37h4.56v-.84h-5.544v8.46zm11.039 0h5.244v-.84h-4.26v-2.98h3.66v-.84h-3.66v-2.96h4.26v-.84h-5.244v8.46zm6.645 0h.984v-7.48l-.156-.7h.276l4.212 8.18h1.98v-8.46h-.972v7.48l.156.7h-.276l-4.224-8.18h-1.98v8.46zm8.669-4.24c0 2.5 1.224 4.36 3.708 4.36 2.184 0 3.324-1.4 3.336-4.36h.276l-.156 1.08v3.16h.984v-3.85c0-.45-.228-.66-.72-.66h-4.176v.79h2.892c.036 2.03-.756 3-2.424 3-1.98 0-2.736-1.44-2.736-3.52 0-2.06 1.032-3.5 3.012-3.5 1.668 0 2.376.91 2.568 2.3h.984c-.252-1.84-1.428-3.14-3.552-3.14-2.448 0-3.996 1.86-3.996 4.34zm15.812 4.24h.972l-2.724-8.46h-2.016l-2.736 8.46h.984l1.056-3.31h3.396l1.068 3.31zm-4.188-4.15l1.284-4.03h.276l1.296 4.03h-2.856zm5.614-.09c0 2.5 1.224 4.36 3.708 4.36 2.184 0 3.324-1.4 3.336-4.36h.276l-.156 1.08v3.16h.984v-3.85c0-.45-.228-.66-.72-.66h-4.176v.79h2.892c.036 2.03-.756 3-2.424 3-1.98 0-2.736-1.44-2.736-3.52 0-2.06 1.032-3.5 3.012-3.5 1.668 0 2.376.91 2.568 2.3h.984c-.252-1.84-1.428-3.14-3.552-3.14-2.448 0-3.996 1.86-3.996 4.34zm9.519 4.24h5.244v-.84h-4.26v-2.98h3.66v-.84h-3.66v-2.96h4.26v-.84h-5.244v8.46zm6.644 0h.984v-7.48l-.156-.7h.276l2.424 8.18h1.98l2.424-8.18h.288l-.168.7v7.48h.984v-8.46h-1.968l-2.412 8.18h-.276l-2.4-8.18h-1.98v8.46zm10.653 0h5.244v-.84h-4.26v-2.98h3.66v-.84h-3.66v-2.96h4.26v-.84h-5.244v8.46zm6.644 0h.984v-7.48l-.156-.7h.276l4.212 8.18h1.98v-8.46h-.972v7.48l.156.7h-.276l-4.224-8.18h-1.98v8.46zm15.316-8.46h-6.852v.84h2.952v7.62h.972v-7.62h2.928v-.84zm.787 6.5l-.936 3.47.876.24.936-3.48-.876-.23zm13.229-6.5h-6.852v.84h2.952v7.62h.972v-7.62h2.928v-.84zm1.172 8.46h.984v-3.4h4.248v3.4h.984v-3.18c0-.44-.192-.64-.672-.64h-1.008v-.28c.912-.16 1.572-.72 1.572-2 0-1.89-1.284-2.36-3.3-2.36h-2.808v8.46zm.984-4.24v-3.38h1.824c1.44 0 2.316.13 2.316 1.69 0 1.55-.876 1.69-2.316 1.69h-1.824zm12.985 4.24h.972l-2.724-8.46h-2.016l-2.736 8.46h.984l1.056-3.31h3.396l1.068 3.31zm-4.188-4.15l1.284-4.03h.276l1.296 4.03H286.2zm9.02-4.31h-2.688v8.46h2.688c2.052 0 4.236-.59 4.236-4.24 0-3.63-2.184-4.22-4.236-4.22zm0 7.62h-1.704v-6.78h1.704c1.5 0 3.252.26 3.252 3.38 0 3.14-1.752 3.4-3.252 3.4zm9.585-6.78v-.84h-4.764v.84h1.896v6.78h-1.896v.84h4.764v-.84h-1.884v-6.78h1.884zm1.497 7.62h.984v-7.48l-.156-.7h.276l4.212 8.18h1.98v-8.46h-.972v7.48l.156.7h-.276l-4.224-8.18h-1.98v8.46zm8.669-4.24c0 2.5 1.224 4.36 3.708 4.36 2.184 0 3.324-1.4 3.336-4.36h.276l-.156 1.08v3.16h.984v-3.85c0-.45-.228-.66-.72-.66h-4.176v.79h2.892c.036 2.03-.756 3-2.424 3-1.98 0-2.736-1.44-2.736-3.52 0-2.06 1.032-3.5 3.012-3.5 1.668 0 2.376.91 2.568 2.3h.984c-.252-1.84-1.428-3.14-3.552-3.14-2.448 0-3.996 1.86-3.996 4.34zm10.118 2.28l-.936 3.47.876.24.936-3.48-.876-.23zm-218.493 15.82c0-1.76-1.92-2.22-3.576-2.73-1.392-.43-2.136-.76-2.136-1.65 0-.93.852-1.22 2.016-1.22 1.296 0 2.364.62 2.364 2.06h.984c0-1.38-.852-2.9-3.348-2.9-2.088 0-3 .79-3 2.09 0 1.5 1.212 1.95 2.88 2.46 1.344.39 2.832.66 2.832 1.94 0 1.02-.828 1.37-2.268 1.37-1.776 0-2.844-.44-2.844-2.45h-.984c0 1.98.876 3.29 3.828 3.29 2.496 0 3.252-1 3.252-2.26zm7.342-6.32v3.86h-4.992v-3.86h-.984v8.46h.984v-3.76h4.992v3.76h.972v-8.46h-.972zm2.341 4.22c0 2.48 1.464 4.36 3.96 4.36 2.472 0 3.936-1.88 3.936-4.36 0-2.46-1.464-4.34-3.936-4.34-2.496 0-3.96 1.88-3.96 4.34zm.984 0c0-2.01.972-3.5 2.976-3.5 1.992 0 2.952 1.49 2.952 3.5 0 2.03-.96 3.52-2.952 3.52-2.004 0-2.976-1.49-2.976-3.52zm10.688-4.22h-2.376v8.46h.984v-2.92h1.392c2.136 0 3.492-.56 3.492-2.78 0-2.21-1.356-2.76-3.492-2.76zm.012 4.7h-1.404v-3.86h1.404c1.44 0 2.496.26 2.496 1.92 0 1.68-1.056 1.94-2.496 1.94zm7.137-4.7h-2.376v8.46h.984v-2.92h1.392c2.136 0 3.492-.56 3.492-2.78 0-2.21-1.356-2.76-3.492-2.76zm.012 4.7h-1.404v-3.86h1.404c1.44 0 2.496.26 2.496 1.92 0 1.68-1.056 1.94-2.496 1.94zm9.041-3.86v-.84h-4.764v.84h1.896v6.78h-1.896v.84h4.764v-.84h-1.884v-6.78h1.884zm1.496 7.62h.984v-7.48l-.156-.7h.276l4.212 8.18h1.98v-8.46h-.972v7.48l.156.7h-.276l-4.224-8.18h-1.98v8.46zm8.67-4.24c0 2.5 1.224 4.36 3.708 4.36 2.184 0 3.324-1.4 3.336-4.36h.276l-.156 1.08v3.16h.984v-3.85c0-.45-.228-.66-.72-.66h-4.176v.79h2.892c.036 2.03-.756 3-2.424 3-1.98 0-2.736-1.44-2.736-3.52 0-2.06 1.032-3.5 3.012-3.5 1.668 0 2.376.91 2.568 2.3h.984c-.252-1.84-1.428-3.14-3.552-3.14-2.448 0-3.996 1.86-3.996 4.34zm19.913 4.24h.972l-2.724-8.46h-2.016l-2.736 8.46h.984l1.056-3.31h3.396l1.068 3.31zm-4.188-4.15l1.284-4.03h.276l1.296 4.03h-2.856zm6.332 4.15h.984v-7.48l-.156-.7h.276l4.212 8.18h1.98v-8.46h-.972v7.48l.156.7h-.276l-4.224-8.18h-1.98v8.46zm11.606-8.46h-2.688v8.46h2.688c2.052 0 4.236-.59 4.236-4.24 0-3.63-2.184-4.22-4.236-4.22zm0 7.62h-1.704v-6.78h1.704c1.5 0 3.252.26 3.252 3.38 0 3.14-1.752 3.4-3.252 3.4zm16.571-1.3c0-1.76-1.92-2.22-3.576-2.73-1.392-.43-2.136-.76-2.136-1.65 0-.93.852-1.22 2.016-1.22 1.296 0 2.364.62 2.364 2.06h.984c0-1.38-.852-2.9-3.348-2.9-2.088 0-3 .79-3 2.09 0 1.5 1.212 1.95 2.88 2.46 1.344.39 2.832.66 2.832 1.94 0 1.02-.828 1.37-2.268 1.37-1.776 0-2.844-.44-2.844-2.45h-.984c0 1.98.876 3.29 3.828 3.29 2.496 0 3.252-1 3.252-2.26zm7.038-6.32h-6.852v.84h2.952v7.62h.972v-7.62h2.928v-.84zm5.895 8.46h.972l-2.724-8.46h-2.016l-2.736 8.46h.984l1.056-3.31h3.396l1.068 3.31zm-4.188-4.15l1.284-4.03h.276l1.296 4.03h-2.856zm13.1-4.31h-1.416l-4.368 3.6v-3.6h-.984v8.46h.984v-3.6l4.368 3.6h1.416l-5.16-4.24 5.16-4.22zm5.903.84v-.84h-4.764v.84h1.896v6.78h-1.896v.84h4.764v-.84h-1.884v-6.78h1.884zm1.497 7.62h.984v-7.48l-.156-.7h.276l4.212 8.18h1.98v-8.46h-.972v7.48l.156.7h-.276l-4.224-8.18h-1.98v8.46zm8.669-4.24c0 2.5 1.224 4.36 3.708 4.36 2.184 0 3.324-1.4 3.336-4.36h.276l-.156 1.08v3.16h.984v-3.85c0-.45-.228-.66-.72-.66h-4.176v.79h2.892c.036 2.03-.756 3-2.424 3-1.98 0-2.736-1.44-2.736-3.52 0-2.06 1.032-3.5 3.012-3.5 1.668 0 2.376.91 2.568 2.3h.984c-.252-1.84-1.428-3.14-3.552-3.14-2.448 0-3.996 1.86-3.996 4.34z"/><circle cx="75" cy="911" r="5"/><path d="M99.756 909.764c0 2.472 1.464 4.356 3.96 4.356 2.472 0 3.936-1.884 3.936-4.356 0-2.46-1.464-4.344-3.936-4.344-2.496 0-3.96 1.884-3.96 4.344zm.984 0c0-2.016.972-3.504 2.976-3.504 1.992 0 2.952 1.488 2.952 3.504 0 2.028-.96 3.516-2.952 3.516-2.004 0-2.976-1.488-2.976-3.516zm10.688-4.224h-2.376V914h.984v-2.916h1.392c2.136 0 3.492-.564 3.492-2.784 0-2.208-1.356-2.76-3.492-2.76zm.012 4.704h-1.404v-3.864h1.404c1.44 0 2.496.264 2.496 1.92 0 1.68-1.056 1.944-2.496 1.944zM116.2 914h5.244v-.84h-4.26v-2.976h3.66v-.84h-3.66v-2.964h4.26v-.84H116.2V914zm6.645 0h.984v-7.476l-.156-.708h.276l4.212 8.184h1.98v-8.46h-.972v7.476l.156.708h-.276l-4.224-8.184h-1.98V914zm12.563-8.46l2.736 8.46h2.016l2.724-8.46h-.972l-2.628 8.184h-.276l-2.616-8.184h-.984zm8.531 8.46h.984v-3.396h4.248V914h.984v-3.18c0-.444-.192-.636-.672-.636h-1.008v-.288c.912-.156 1.572-.72 1.572-1.992 0-1.896-1.284-2.364-3.3-2.364h-2.808V914zm.984-4.236v-3.384h1.824c1.44 0 2.315.132 2.315 1.692 0 1.548-.875 1.692-2.315 1.692h-1.824zm13.657-4.224h-2.688V914h2.688c2.052 0 4.236-.588 4.236-4.236 0-3.636-2.184-4.224-4.236-4.224zm0 7.62h-1.704v-6.78h1.704c1.5 0 3.252.264 3.252 3.384 0 3.132-1.752 3.396-3.252 3.396zm5.632.84h5.244v-.84h-4.26v-2.976h3.66v-.84h-3.66v-2.964h4.26v-.84h-5.244V914zm6.282-8.46l2.736 8.46h2.016l2.724-8.46h-.972l-2.628 8.184h-.276l-2.616-8.184h-.984zm8.53 8.46h5.244v-.84h-4.26v-2.976h3.66v-.84h-3.66v-2.964h4.26v-.84h-5.244V914zm7.377.12l4.512-.12v-.84l-4.26.12v-7.74h-.984v7.86c0 .456.264.732.732.72zm4.703-4.356c0 2.472 1.464 4.356 3.96 4.356 2.472 0 3.936-1.884 3.936-4.356 0-2.46-1.464-4.344-3.936-4.344-2.496 0-3.96 1.884-3.96 4.344zm.984 0c0-2.016.972-3.504 2.976-3.504 1.992 0 2.952 1.488 2.952 3.504 0 2.028-.96 3.516-2.952 3.516-2.004 0-2.976-1.488-2.976-3.516zm10.687-4.224h-2.376V914h.984v-2.916h1.392c2.136 0 3.492-.564 3.492-2.784 0-2.208-1.356-2.76-3.492-2.76zm.012 4.704h-1.404v-3.864h1.404c1.44 0 2.496.264 2.496 1.92 0 1.68-1.056 1.944-2.496 1.944zm4.761 3.756h.984v-7.476l-.156-.708h.276l2.424 8.184h1.98l2.424-8.184h.288l-.168.708V914h.984v-8.46h-1.968l-2.412 8.184h-.276l-2.4-8.184h-1.98V914zm10.652 0h5.244v-.84h-4.26v-2.976h3.66v-.84h-3.66v-2.964h4.26v-.84H218.2V914zm6.645 0h.984v-7.476l-.156-.708h.276l4.212 8.184h1.98v-8.46h-.972v7.476l.156.708h-.276l-4.224-8.184h-1.98V914zm19.763-2.136c0-1.764-1.92-2.22-3.576-2.736-1.392-.432-2.136-.756-2.136-1.644 0-.936.852-1.224 2.016-1.224 1.296 0 2.364.624 2.364 2.064h.984c0-1.38-.852-2.904-3.348-2.904-2.088 0-3 .792-3 2.088 0 1.5 1.212 1.956 2.88 2.46 1.344.396 2.832.66 2.832 1.944 0 1.02-.828 1.368-2.268 1.368-1.776 0-2.844-.444-2.844-2.448h-.984c0 1.98.876 3.288 3.828 3.288 2.496 0 3.252-.996 3.252-2.256zm4.054-6.324h-2.688V914h2.688c2.052 0 4.236-.588 4.236-4.236 0-3.636-2.184-4.224-4.236-4.224zm0 7.62h-1.704v-6.78h1.704c1.5 0 3.252.264 3.252 3.384 0 3.132-1.752 3.396-3.252 3.396zm12.4-7.62h-1.416l-4.368 3.6v-3.6h-.984V914h.984v-3.6l4.368 3.6h1.416l-5.16-4.236 5.16-4.224zm5.267 8.46h.984v-3.396h4.248V914h.984v-3.18c0-.444-.192-.636-.672-.636h-1.008v-.288c.912-.156 1.572-.72 1.572-1.992 0-1.896-1.284-2.364-3.3-2.364h-2.808V914zm.984-4.236v-3.384h1.824c1.44 0 2.316.132 2.316 1.692 0 1.548-.876 1.692-2.316 1.692h-1.824zm6.844 4.236h5.244v-.84h-4.26v-2.976h3.66v-.84h-3.66v-2.964h4.26v-.84h-5.244V914zm7.377.12l4.512-.12v-.84l-4.26.12v-7.74h-.984v7.86c0 .456.264.732.732.72zm5.783-.12h5.244v-.84h-4.26v-2.976h3.66v-.84h-3.66v-2.964h4.26v-.84h-5.244V914zm12.786 0h.972l-2.724-8.46h-2.016l-2.736 8.46h.984l1.056-3.312h3.396l1.068 3.312zm-4.188-4.152l1.284-4.032h.276l1.296 4.032h-2.856zm12.689 2.016c0-1.764-1.92-2.22-3.576-2.736-1.392-.432-2.136-.756-2.136-1.644 0-.936.852-1.224 2.016-1.224 1.296 0 2.364.624 2.364 2.064h.984c0-1.38-.852-2.904-3.348-2.904-2.088 0-3 .792-3 2.088 0 1.5 1.212 1.956 2.88 2.46 1.344.396 2.832.66 2.832 1.944 0 1.02-.828 1.368-2.268 1.368-1.776 0-2.844-.444-2.844-2.448h-.984c0 1.98.876 3.288 3.828 3.288 2.496 0 3.252-.996 3.252-2.256zM309.97 914h5.244v-.84h-4.26v-2.976h3.66v-.84h-3.66v-2.964h4.26v-.84h-5.244V914z"/><circle cx="75" cy="877" r="5"/><path d="M99.876 880h.984v-7.476l-.156-.708h.276l2.424 8.184h1.98l2.424-8.184h.288l-.168.708V880h.984v-8.46h-1.968l-2.412 8.184h-.276l-2.4-8.184h-1.98V880zm10.652 0h5.244v-.84h-4.26v-2.976h3.66v-.84h-3.66v-2.964h4.26v-.84h-5.244V880zm13.254-8.46h-6.852v.84h2.952V880h.972v-7.62h2.928v-.84zm5.895 8.46h.972l-2.724-8.46h-2.016l-2.736 8.46h.984l1.056-3.312h3.396l1.068 3.312zm-4.188-4.152l1.284-4.032h.276l1.296 4.032h-2.856zm4.528-4.308l2.736 8.46h2.016l2.724-8.46h-.972l-2.628 8.184h-.276l-2.616-8.184h-.984zm8.531 8.46h5.244v-.84h-4.26v-2.976h3.66v-.84h-3.66v-2.964h4.26v-.84h-5.244V880zm6.644 0h.984v-3.396h4.248V880h.984v-3.18c0-.444-.192-.636-.672-.636h-1.008v-.288c.912-.156 1.572-.72 1.572-1.992 0-1.896-1.284-2.364-3.3-2.364h-2.808V880zm.984-4.236v-3.384H148c1.44 0 2.316.132 2.316 1.692 0 1.548-.876 1.692-2.316 1.692h-1.824zm13.565 2.1c0-1.764-1.92-2.22-3.576-2.736-1.392-.432-2.136-.756-2.136-1.644 0-.936.852-1.224 2.016-1.224 1.296 0 2.364.624 2.364 2.064h.984c0-1.38-.852-2.904-3.348-2.904-2.088 0-3 .792-3 2.088 0 1.5 1.212 1.956 2.88 2.46 1.344.396 2.832.66 2.832 1.944 0 1.02-.828 1.368-2.268 1.368-1.776 0-2.844-.444-2.844-2.448h-.984c0 1.98.876 3.288 3.828 3.288 2.496 0 3.252-.996 3.252-2.256zm1.365 2.136h5.244v-.84h-4.26v-2.976h3.66v-.84h-3.66v-2.964h4.26v-.84h-5.244V880zm10.267-8.46l2.736 8.46h2.016l2.724-8.46h-.972l-2.628 8.184h-.276l-2.616-8.184h-.984zm8.53 8.46h.984v-3.396h4.248V880h.984v-3.18c0-.444-.192-.636-.672-.636h-1.008v-.288c.912-.156 1.572-.72 1.572-1.992 0-1.896-1.284-2.364-3.3-2.364h-2.808V880zm.984-4.236v-3.384h1.824c1.44 0 2.316.132 2.316 1.692 0 1.548-.876 1.692-2.316 1.692h-1.824zm10.849 0c0 2.496 1.224 4.356 3.708 4.356 2.184 0 3.324-1.404 3.336-4.356h.276l-.156 1.08V880h.984v-3.852c0-.444-.228-.66-.72-.66h-4.176v.792h2.892c.036 2.028-.756 3-2.424 3-1.98 0-2.736-1.44-2.736-3.516 0-2.064 1.032-3.504 3.012-3.504 1.668 0 2.376.912 2.568 2.304h.984c-.252-1.848-1.428-3.144-3.552-3.144-2.448 0-3.996 1.86-3.996 4.344zM207.548 880h.972l-2.724-8.46h-2.016l-2.736 8.46h.984l1.056-3.312h3.396l1.068 3.312zm-4.188-4.152l1.284-4.032h.276l1.296 4.032h-2.856zm6.332 4.152h.984v-7.476l-.156-.708h.276L213.22 880h1.98l2.424-8.184h.288l-.168.708V880h.984v-8.46h-1.968l-2.412 8.184h-.276l-2.4-8.184h-1.98V880zm15.297-7.62v-.84h-4.764v.84h1.896v6.78h-1.896v.84h4.764v-.84h-1.884v-6.78h1.884zm1.496 7.62h.984v-7.476l-.156-.708h.276l4.212 8.184h1.98v-8.46h-.972v7.476l.156.708h-.276l-4.224-8.184h-1.98V880zm8.669-4.236c0 2.496 1.224 4.356 3.708 4.356 2.184 0 3.324-1.404 3.336-4.356h.276l-.156 1.08V880h.984v-3.852c0-.444-.228-.66-.72-.66h-4.176v.792h2.892c.036 2.028-.756 3-2.424 3-1.98 0-2.736-1.44-2.736-3.516 0-2.064 1.032-3.504 3.012-3.504 1.668 0 2.376.912 2.568 2.304h.984c-.252-1.848-1.428-3.144-3.552-3.144-2.448 0-3.996 1.86-3.996 4.344zm14.622 4.356l4.512-.12v-.84l-4.26.12v-7.74h-.984v7.86c0 .456.264.732.732.72zm11.808-.12h.972l-2.724-8.46h-2.016L255.08 880h.984l1.056-3.312h3.396l1.068 3.312zm-4.188-4.152l1.284-4.032h.276l1.296 4.032h-2.856zm5.845 1.008c0 2.112 1.044 3.264 3.348 3.264 2.316 0 3.36-1.152 3.36-3.264v-5.316h-.984v5.16c0 1.716-.612 2.58-2.376 2.58s-2.364-.864-2.364-2.58v-5.16h-.984v5.316zm8.198 3.144h.984v-7.476l-.156-.708h.276l4.212 8.184h1.98v-8.46h-.972v7.476l.156.708h-.276l-4.224-8.184h-1.98V880zm8.669-4.236c0 2.472 1.476 4.356 3.96 4.356 2.16 0 3.576-1.296 3.828-3.396h-.984c-.192 1.62-1.188 2.556-2.844 2.556-1.968 0-2.976-1.464-2.976-3.516 0-2.04 1.008-3.504 2.976-3.504 1.656 0 2.652.924 2.844 2.544h.984c-.252-2.088-1.668-3.384-3.828-3.384-2.484 0-3.96 1.884-3.96 4.344zm15.166-4.224v3.864h-4.992v-3.864h-.984V880h.984v-3.756h4.992V880h.972v-8.46h-.972z"/><circle cx="75" cy="843" r="5"/><path d="M102.252 837.54h-2.376V846h.984v-2.916h1.392c2.136 0 3.492-.564 3.492-2.784 0-2.208-1.356-2.76-3.492-2.76zm.012 4.704h-1.404v-3.864h1.404c1.44 0 2.496.264 2.496 1.92 0 1.68-1.056 1.944-2.496 1.944zm4.76 3.756h.984v-3.396h4.248V846h.984v-3.18c0-.444-.192-.636-.672-.636h-1.008v-.288c.912-.156 1.572-.72 1.572-1.992 0-1.896-1.284-2.364-3.3-2.364h-2.808V846zm.984-4.236v-3.384h1.824c1.44 0 2.316.132 2.316 1.692 0 1.548-.876 1.692-2.316 1.692h-1.824zm11.395-3.384v-.84h-4.764v.84h1.896v6.78h-1.896v.84h4.764v-.84h-1.884v-6.78h1.884zm1.157-.84l2.736 8.46h2.016l2.724-8.46h-.972l-2.628 8.184h-.276l-2.616-8.184h-.984zm13.231 8.46h.972l-2.724-8.46h-2.016l-2.736 8.46h.984l1.056-3.312h3.396l1.068 3.312zm-4.188-4.152l1.284-4.032h.276l1.296 4.032h-2.856zm11.382-4.308h-6.852v.84h2.952V846h.972v-7.62h2.928v-.84zm1.172 8.46h5.244v-.84h-4.26v-2.976h3.66v-.84h-3.66v-2.964h4.26v-.84h-5.244V846zm10.266-8.46l2.736 8.46h2.016l2.724-8.46h-.972l-2.628 8.184h-.276l-2.616-8.184h-.984zm8.531 8.46h.984v-3.396h4.248V846h.984v-3.18c0-.444-.192-.636-.672-.636h-1.008v-.288c.912-.156 1.572-.72 1.572-1.992 0-1.896-1.284-2.364-3.3-2.364h-2.808V846zm.984-4.236v-3.384h1.824c1.44 0 2.316.132 2.316 1.692 0 1.548-.876 1.692-2.316 1.692h-1.824zM172.907 846h5.244v-.84h-4.26v-2.976h3.66v-.84h-3.66v-2.964h4.26v-.84h-5.244V846zm6.282 0h1.128l2.592-3.648 2.604 3.648h1.116l-2.94-4.056v-.36l2.94-4.044h-1.116l-2.604 3.636-2.592-3.636h-1.128l2.94 4.044v.36l-2.94 4.056zm10.954-8.46h-2.376V846h.984v-2.916h1.392c2.136 0 3.492-.564 3.492-2.784 0-2.208-1.356-2.76-3.492-2.76zm.012 4.704h-1.404v-3.864h1.404c1.44 0 2.496.264 2.496 1.92 0 1.68-1.056 1.944-2.496 1.944zm4.76 3.756h5.244v-.84h-4.26v-2.976h3.66v-.84h-3.66v-2.964h4.26v-.84h-5.244V846zm6.645 0h.984v-3.396h4.248V846h.984v-3.18c0-.444-.192-.636-.672-.636h-1.008v-.288c.912-.156 1.572-.72 1.572-1.992 0-1.896-1.284-2.364-3.3-2.364h-2.808V846zm.984-4.236v-3.384h1.824c1.44 0 2.316.132 2.316 1.692 0 1.548-.876 1.692-2.316 1.692h-1.824zm11.394-3.384v-.84h-4.764v.84h1.896v6.78h-1.896v.84h4.764v-.84h-1.884v-6.78h1.884zm1.497 7.62h5.244v-.84h-4.26v-2.976h3.66v-.84h-3.66v-2.964h4.26v-.84h-5.244V846zm6.644 0h.984v-7.476l-.156-.708h.276l4.212 8.184h1.98v-8.46h-.972v7.476l.156.708h-.276l-4.224-8.184h-1.98V846zm8.669-4.236c0 2.472 1.476 4.356 3.96 4.356 2.16 0 3.576-1.296 3.828-3.396h-.984c-.192 1.62-1.188 2.556-2.844 2.556-1.968 0-2.976-1.464-2.976-3.516 0-2.04 1.008-3.504 2.976-3.504 1.656 0 2.652.924 2.844 2.544h.984c-.252-2.088-1.668-3.384-3.828-3.384-2.484 0-3.96 1.884-3.96 4.344zm9.191 4.236h5.244v-.84h-4.26v-2.976h3.66v-.84h-3.66v-2.964h4.26v-.84h-5.244V846zm11.478.12l4.512-.12v-.84l-4.26.12v-7.74h-.984v7.86c0 .456.264.732.732.72zm11.807-.12h.972l-2.724-8.46h-2.016L256.72 846h.984l1.056-3.312h3.396l1.068 3.312zm-4.188-4.152l1.284-4.032h.276l1.296 4.032h-2.856zm5.846 1.008c0 2.112 1.044 3.264 3.348 3.264 2.316 0 3.36-1.152 3.36-3.264v-5.316h-.984v5.16c0 1.716-.612 2.58-2.376 2.58s-2.364-.864-2.364-2.58v-5.16h-.984v5.316zm8.197 3.144h.984v-7.476l-.156-.708h.276l4.212 8.184h1.98v-8.46h-.972v7.476l.156.708h-.276l-4.224-8.184h-1.98V846zm8.669-4.236c0 2.472 1.476 4.356 3.96 4.356 2.16 0 3.576-1.296 3.828-3.396h-.984c-.192 1.62-1.188 2.556-2.844 2.556-1.968 0-2.976-1.464-2.976-3.516 0-2.04 1.008-3.504 2.976-3.504 1.656 0 2.652.924 2.844 2.544h.984c-.252-2.088-1.668-3.384-3.828-3.384-2.484 0-3.96 1.884-3.96 4.344zm15.167-4.224v3.864h-4.992v-3.864h-.984V846h.984v-3.756h4.992V846h.972v-8.46h-.972z"/><circle cx="75" cy="809" r="5"/><path d="M99.636 807.62h.984c0-2.52 1.116-3.36 2.676-3.36 1.284 0 2.016.684 2.016 1.992 0 3.096-4.692 3.912-5.556 4.032V812h6.54v-.84h-5.556l-.696.156v-.276c3.492-.552 6.252-2.028 6.252-4.776 0-1.848-1.224-2.844-3.024-2.844-2.028 0-3.636 1.152-3.636 4.2zm8.267 4.38h.984v-7.476l-.156-.708h.276l4.212 8.184h1.98v-8.46h-.972v7.476l.156.708h-.276l-4.224-8.184h-1.98V812zm11.606-8.46h-2.688V812h2.688c2.052 0 4.236-.588 4.236-4.236 0-3.636-2.184-4.224-4.236-4.224zm0 7.62h-1.704v-6.78h1.704c1.5 0 3.252.264 3.252 3.384 0 3.132-1.752 3.396-3.252 3.396zm9.851.84h.984v-7.476l-.156-.708h.276l4.212 8.184h1.98v-8.46h-.972v7.476l.156.708h-.276l-4.224-8.184h-1.98V812zm8.918 0h.984v-3.396l3.996-.24v-.852l-3.996.24v-3.372h4.56v-.84h-5.544V812zm13.547-8.46h-6.852v.84h2.952V812h.972v-7.62h2.928v-.84zm5.391 8.46h.984v-3.396h4.248V812h.984v-3.18c0-.444-.192-.636-.672-.636h-1.008v-.288c.912-.156 1.572-.72 1.572-1.992 0-1.896-1.284-2.364-3.3-2.364h-2.808V812zm.984-4.236v-3.384h1.824c1.44 0 2.316.132 2.316 1.692 0 1.548-.876 1.692-2.316 1.692H158.2zm6.844 4.236h5.244v-.84h-4.26v-2.976h3.66v-.84h-3.66v-2.964h4.26v-.84h-5.244V812zm12.786 0h.972l-2.724-8.46h-2.016l-2.736 8.46h.984l1.056-3.312h3.396L177.83 812zm-4.188-4.152l1.284-4.032h.276l1.296 4.032h-2.856zm7.064 4.272l4.512-.12v-.84l-4.26.12v-7.74h-.984v7.86c0 .456.264.732.732.72zm9.768-.12h5.244v-.84h-4.26v-2.976h3.66v-.84h-3.66v-2.964h4.26v-.84h-5.244V812zm13.247-2.136c0-1.764-1.92-2.22-3.576-2.736-1.392-.432-2.136-.756-2.136-1.644 0-.936.852-1.224 2.016-1.224 1.296 0 2.364.624 2.364 2.064h.984c0-1.38-.852-2.904-3.348-2.904-2.088 0-3 .792-3 2.088 0 1.5 1.212 1.956 2.88 2.46 1.344.396 2.832.66 2.832 1.944 0 1.02-.828 1.368-2.268 1.368-1.776 0-2.844-.444-2.844-2.448h-.984c0 1.98.876 3.288 3.828 3.288 2.496 0 3.252-.996 3.252-2.256zm7.038-6.324h-6.852v.84h2.952V812h.972v-7.62h2.928v-.84zm5.895 8.46h.972l-2.724-8.46h-2.016L210.15 812h.984l1.056-3.312h3.396l1.068 3.312zm-4.188-4.152l1.284-4.032h.276l1.296 4.032h-2.856zm11.382-4.308h-6.852v.84h2.952V812h.972v-7.62h2.928v-.84zm1.173 8.46h5.244v-.84h-4.26v-2.976h3.66v-.84h-3.66v-2.964h4.26v-.84h-5.244V812zm17.466-2.136c0-1.764-1.92-2.22-3.576-2.736-1.392-.432-2.136-.756-2.136-1.644 0-.936.852-1.224 2.016-1.224 1.296 0 2.364.624 2.364 2.064h.984c0-1.38-.852-2.904-3.348-2.904-2.088 0-3 .792-3 2.088 0 1.5 1.212 1.956 2.88 2.46 1.344.396 2.832.66 2.832 1.944 0 1.02-.828 1.368-2.268 1.368-1.776 0-2.844-.444-2.844-2.448h-.984c0 1.98.876 3.288 3.828 3.288 2.496 0 3.252-.996 3.252-2.256zm7.272 2.136h.972l-2.724-8.46h-2.016l-2.736 8.46h.984l1.056-3.312h3.396l1.068 3.312zm-4.188-4.152l1.284-4.032h.276l1.296 4.032h-2.856zm7.064 4.272l4.512-.12v-.84l-4.26.12v-7.74h-.984v7.86c0 .456.264.732.732.72zm5.784-.12h5.244v-.84h-4.26v-2.976h3.66v-.84h-3.66v-2.964h4.26v-.84h-5.244V812z"/><circle cx="75" cy="775" r="5"/><path d="M106.596 775.864c0-1.764-1.92-2.22-3.576-2.736-1.392-.432-2.136-.756-2.136-1.644 0-.936.852-1.224 2.016-1.224 1.296 0 2.364.624 2.364 2.064h.984c0-1.38-.852-2.904-3.348-2.904-2.088 0-3 .792-3 2.088 0 1.5 1.212 1.956 2.88 2.46 1.344.396 2.832.66 2.832 1.944 0 1.02-.828 1.368-2.268 1.368-1.776 0-2.844-.444-2.844-2.448h-.984c0 1.98.876 3.288 3.828 3.288 2.496 0 3.252-.996 3.252-2.256zm7.038-6.324h-6.852v.84h2.952V778h.972v-7.62h2.928v-.84zm5.895 8.46h.972l-2.724-8.46h-2.016l-2.736 8.46h.984l1.056-3.312h3.396l1.068 3.312zm-4.188-4.152l1.284-4.032h.276l1.296 4.032h-2.856zm13.1-4.308h-1.416l-4.368 3.6v-3.6h-.984V778h.984v-3.6l4.368 3.6h1.416l-5.16-4.236 5.16-4.224zm5.903.84v-.84h-4.764v.84h1.896v6.78h-1.896v.84h4.764v-.84h-1.884v-6.78h1.884zm1.497 7.62h.984v-7.476l-.156-.708h.276l4.212 8.184h1.98v-8.46h-.972v7.476l.156.708h-.276l-4.224-8.184h-1.98V778zm8.669-4.236c0 2.496 1.224 4.356 3.708 4.356 2.184 0 3.324-1.404 3.336-4.356h.276l-.156 1.08V778h.984v-3.852c0-.444-.228-.66-.72-.66h-4.176v.792h2.892c.036 2.028-.756 3-2.424 3-1.98 0-2.736-1.44-2.736-3.516 0-2.064 1.032-3.504 3.012-3.504 1.668 0 2.376.912 2.568 2.304h.984c-.252-1.848-1.428-3.144-3.552-3.144-2.448 0-3.996 1.86-3.996 4.344zm14.621 4.356l4.512-.12v-.84l-4.26.12v-7.74h-.984v7.86c0 .456.264.732.732.72zm11.808-.12h.972l-2.724-8.46h-2.016l-2.736 8.46h.984l1.056-3.312h3.396l1.068 3.312zm-4.188-4.152l1.284-4.032h.276l1.296 4.032h-2.856zm5.846 1.008c0 2.112 1.044 3.264 3.348 3.264 2.316 0 3.36-1.152 3.36-3.264v-5.316h-.984v5.16c0 1.716-.612 2.58-2.376 2.58s-2.364-.864-2.364-2.58v-5.16h-.984v5.316zm8.197 3.144h.984v-7.476l-.156-.708h.276L186.11 778h1.98v-8.46h-.972v7.476l.156.708h-.276l-4.224-8.184h-1.98V778zm8.669-4.236c0 2.472 1.476 4.356 3.96 4.356 2.16 0 3.576-1.296 3.828-3.396h-.984c-.192 1.62-1.188 2.556-2.844 2.556-1.968 0-2.976-1.464-2.976-3.516 0-2.04 1.008-3.504 2.976-3.504 1.656 0 2.652.924 2.844 2.544h.984c-.252-2.088-1.668-3.384-3.828-3.384-2.484 0-3.96 1.884-3.96 4.344zm15.166-4.224v3.864h-4.992v-3.864h-.984V778h.984v-3.756h4.992V778h.972v-8.46h-.972zm-98.957-567.18c1.44-.78 2.796-2.196 2.796-4.596 0-2.58-1.752-4.344-4.428-4.344-2.688 0-4.44 1.884-4.44 4.344 0 2.592 1.752 4.236 3.744 4.236 1.14 0 1.692-.252 2.124-.612l.264.432c-1.296.732-3.036.84-4.248.96l.156 1.56c3-.432 5.028-.516 8.34-.06v-1.68c-1.908-.252-3.096-.336-4.308-.24zm-1.632-1.92c-1.596 0-2.52-1.044-2.52-2.676 0-1.62.924-2.664 2.52-2.664s2.508 1.044 2.508 2.664c0 1.632-.912 2.676-2.508 2.676zm12.84-1.548h-.924v-1.872h-1.92v1.872H111.3l-1.2.36v-.48c3-.624 4.704-2.436 4.836-5.232h-1.92c-.144 2.004-1.38 3.228-3.396 3.54v3.492h4.416V202h1.92v-1.428h.924v-1.68zm4.327-1.476h1.92c0-1.62.648-2.316 2.1-2.316 1.092 0 1.452.54 1.452 1.08 0 1.872-4.488 2.34-5.352 2.46V202h7.272v-1.68h-5.592l-1.2.36v-.48c3.96-.732 6.792-1.092 6.792-3.936 0-1.848-1.392-2.844-3.396-2.844-2.22 0-3.996 1.152-3.996 3.996zm12.435-3.996c-2.568 0-4.08 1.764-4.08 4.344 0 2.592 1.512 4.356 4.08 4.356 2.556 0 4.068-1.764 4.068-4.356 0-2.58-1.512-4.344-4.068-4.344zm0 1.68c.468 0 .876.108 1.2.324l-3.228 3.444a4.35 4.35 0 0 1-.132-1.104c0-1.74.804-2.664 2.16-2.664zm0 5.34c-.468 0-.876-.108-1.212-.336l3.228-3.444a4.42 4.42 0 0 1 .132 1.104c0 1.752-.792 2.676-2.148 2.676zm5.026-3.024h1.92c0-1.62.648-2.316 2.1-2.316 1.092 0 1.452.54 1.452 1.08 0 1.872-4.488 2.34-5.352 2.46V202h7.272v-1.68h-5.592l-1.2.36v-.48c3.96-.732 6.792-1.092 6.792-3.936 0-1.848-1.392-2.844-3.396-2.844-2.22 0-3.996 1.152-3.996 3.996zm8.235-.516l.672 1.74c2.604-.804 3.024-2.436 3.168-4.62h.48l-.36 1.08v6.9h1.92v-8.46h-3.732c0 1.932-.588 2.748-2.148 3.36zm-41.231 291.46c1.44-.78 2.796-2.196 2.796-4.596 0-2.58-1.752-4.344-4.428-4.344-2.688 0-4.44 1.884-4.44 4.344 0 2.592 1.752 4.236 3.744 4.236 1.14 0 1.692-.252 2.124-.612l.264.432c-1.296.732-3.036.84-4.248.96l.156 1.56c3-.432 5.028-.516 8.34-.06v-1.68c-1.908-.252-3.096-.336-4.308-.24zm-1.632-1.92c-1.596 0-2.52-1.044-2.52-2.676 0-1.62.924-2.664 2.52-2.664s2.508 1.044 2.508 2.664c0 1.632-.912 2.676-2.508 2.676zm5.34-3.54l.672 1.74c2.604-.804 3.024-2.436 3.168-4.62h.48l-.36 1.08v6.9h1.92v-8.46h-3.732c0 1.932-.588 2.748-2.148 3.36zm10.444.516h1.92c0-1.62.648-2.316 2.1-2.316 1.092 0 1.452.54 1.452 1.08 0 1.872-4.488 2.34-5.352 2.46V488h7.272v-1.68h-5.592l-1.2.36v-.48c3.96-.732 6.792-1.092 6.792-3.936 0-1.848-1.392-2.844-3.396-2.844-2.22 0-3.996 1.152-3.996 3.996zm12.435-3.996c-2.568 0-4.08 1.764-4.08 4.344 0 2.592 1.512 4.356 4.08 4.356 2.556 0 4.068-1.764 4.068-4.356 0-2.58-1.512-4.344-4.068-4.344zm0 1.68c.468 0 .876.108 1.2.324l-3.228 3.444a4.35 4.35 0 0 1-.132-1.104c0-1.74.804-2.664 2.16-2.664zm0 5.34c-.468 0-.876-.108-1.212-.336l3.228-3.444a4.42 4.42 0 0 1 .132 1.104c0 1.752-.792 2.676-2.148 2.676zm5.026-3.024h1.92c0-1.62.648-2.316 2.1-2.316 1.092 0 1.452.54 1.452 1.08 0 1.872-4.488 2.34-5.352 2.46V488h7.272v-1.68h-5.592l-1.2.36v-.48c3.96-.732 6.792-1.092 6.792-3.936 0-1.848-1.392-2.844-3.396-2.844-2.22 0-3.996 1.152-3.996 3.996zm8.355 0h1.92c0-1.62.648-2.316 2.1-2.316 1.092 0 1.452.54 1.452 1.08 0 1.872-4.488 2.34-5.352 2.46V488h7.272v-1.68h-5.592l-1.2.36v-.48c3.96-.732 6.792-1.092 6.792-3.936 0-1.848-1.392-2.844-3.396-2.844-2.22 0-3.996 1.152-3.996 3.996zM105.672 740.36c1.44-.78 2.796-2.196 2.796-4.596 0-2.58-1.752-4.344-4.428-4.344-2.688 0-4.44 1.884-4.44 4.344 0 2.592 1.752 4.236 3.744 4.236 1.14 0 1.692-.252 2.124-.612l.264.432c-1.296.732-3.036.84-4.248.96l.156 1.56c3-.432 5.028-.516 8.34-.06v-1.68c-1.908-.252-3.096-.336-4.308-.24zm-1.632-1.92c-1.596 0-2.52-1.044-2.52-2.676 0-1.62.924-2.664 2.52-2.664s2.508 1.044 2.508 2.664c0 1.632-.912 2.676-2.508 2.676zm5.46-3.024h1.92c0-1.62.648-2.316 2.1-2.316 1.092 0 1.452.54 1.452 1.08 0 1.872-4.488 2.34-5.352 2.46V740h7.272v-1.68H111.3l-1.2.36v-.48c3.96-.732 6.792-1.092 6.792-3.936 0-1.848-1.392-2.844-3.396-2.844-2.22 0-3.996 1.152-3.996 3.996zm11.718 0h1.92c0-1.62.648-2.316 2.1-2.316 1.092 0 1.452.54 1.452 1.08 0 1.872-4.488 2.34-5.352 2.46V740h7.272v-1.68h-5.592l-1.2.36v-.48c3.96-.732 6.792-1.092 6.792-3.936 0-1.848-1.392-2.844-3.396-2.844-2.22 0-3.996 1.152-3.996 3.996zm12.436-3.996c-2.568 0-4.08 1.764-4.08 4.344 0 2.592 1.512 4.356 4.08 4.356 2.556 0 4.068-1.764 4.068-4.356 0-2.58-1.512-4.344-4.068-4.344zm0 1.68c.468 0 .876.108 1.2.324l-3.228 3.444a4.35 4.35 0 0 1-.132-1.104c0-1.74.804-2.664 2.16-2.664zm0 5.34c-.468 0-.876-.108-1.212-.336l3.228-3.444a4.42 4.42 0 0 1 .132 1.104c0 1.752-.792 2.676-2.148 2.676zm5.025-3.024h1.92c0-1.62.648-2.316 2.1-2.316 1.092 0 1.452.54 1.452 1.08 0 1.872-4.488 2.34-5.352 2.46V740h7.272v-1.68h-5.592l-1.2.36v-.48c3.96-.732 6.792-1.092 6.792-3.936 0-1.848-1.392-2.844-3.396-2.844-2.22 0-3.996 1.152-3.996 3.996zm8.356 0h1.92c0-1.62.648-2.316 2.1-2.316 1.092 0 1.452.54 1.452 1.08 0 1.872-4.488 2.34-5.352 2.46V740h7.272v-1.68h-5.592l-1.2.36v-.48c3.96-.732 6.792-1.092 6.792-3.936 0-1.848-1.392-2.844-3.396-2.844-2.22 0-3.996 1.152-3.996 3.996zm-41.363 290.944c1.44-.78 2.796-2.2 2.796-4.6 0-2.58-1.752-4.34-4.428-4.34-2.688 0-4.44 1.88-4.44 4.34 0 2.6 1.752 4.24 3.744 4.24 1.14 0 1.692-.25 2.124-.61l.264.43c-1.296.73-3.036.84-4.248.96l.156 1.56c3-.43 5.028-.52 8.34-.06v-1.68c-1.908-.25-3.096-.34-4.308-.24zm-1.632-1.92c-1.596 0-2.52-1.04-2.52-2.68 0-1.62.924-2.66 2.52-2.66s2.508 1.04 2.508 2.66c0 1.64-.912 2.68-2.508 2.68zm5.34-1.67c0 2.55 1.776 3.35 3.948 3.35 2.028 0 3.636-.74 3.636-2.41 0-1.5-1.044-1.68-2.124-1.83v-.48c1.08-.18 2.004-.42 2.004-1.69 0-1.55-1.488-2.29-3.516-2.29-2.172 0-3.828.8-3.828 2.99h1.92c0-.97.408-1.31 1.908-1.31 1.236 0 1.596.29 1.596.85 0 .55-.324.85-1.044.85h-1.176v1.68h1.176c.72 0 1.164.32 1.164.99 0 .68-.48.97-1.716.97-1.5 0-2.028-.34-2.028-1.67h-1.92zm12.026-1.35h1.92c0-1.62.648-2.32 2.1-2.32 1.092 0 1.452.54 1.452 1.08 0 1.87-4.488 2.34-5.352 2.46v3.36h7.272v-1.68h-5.592l-1.2.36v-.48c3.96-.73 6.792-1.09 6.792-3.94 0-1.84-1.392-2.84-3.396-2.84-2.22 0-3.996 1.15-3.996 4zm12.435-4c-2.568 0-4.08 1.76-4.08 4.34 0 2.6 1.512 4.36 4.08 4.36 2.556 0 4.068-1.76 4.068-4.36 0-2.58-1.512-4.34-4.068-4.34zm0 1.68c.468 0 .876.11 1.2.32l-3.228 3.45c-.084-.33-.132-.69-.132-1.11 0-1.74.804-2.66 2.16-2.66zm0 5.34c-.468 0-.876-.11-1.212-.34l3.228-3.44a4.41 4.41 0 0 1 .132 1.1c0 1.76-.792 2.68-2.148 2.68zm5.026-3.02h1.92c0-1.62.648-2.32 2.1-2.32 1.092 0 1.452.54 1.452 1.08 0 1.87-4.488 2.34-5.352 2.46v3.36h7.272v-1.68h-5.592l-1.2.36v-.48c3.96-.73 6.792-1.09 6.792-3.94 0-1.84-1.392-2.84-3.396-2.84-2.22 0-3.996 1.15-3.996 4zm8.355 0h1.92c0-1.62.648-2.32 2.1-2.32 1.092 0 1.452.54 1.452 1.08 0 1.87-4.488 2.34-5.352 2.46v3.36h7.272v-1.68h-5.592l-1.2.36v-.48c3.96-.73 6.792-1.09 6.792-3.94 0-1.84-1.392-2.84-3.396-2.84-2.22 0-3.996 1.15-3.996 4z"/><circle cx="73" cy="429" r="16" transform="rotate(270 73 429)"/><circle cx="73" cy="681" r="16" transform="rotate(270 73 681)"/><circle cx="73" cy="967" r="16" transform="rotate(270 73 967)"/></g><path stroke="url(#B)" d="M74.5 183v978"/><g fill="#fff"><circle cx="75" cy="373" r="5"/><path d="M99.876 376h.984v-7.476l-.156-.708h.276l2.424 8.184h1.98l2.424-8.184h.288l-.168.708V376h.984v-8.46h-1.968l-2.412 8.184h-.276l-2.4-8.184h-1.98V376zm10.652 0h5.244v-.84h-4.26v-2.976h3.66v-.84h-3.66v-2.964h4.26v-.84h-5.244V376zm13.254-8.46h-6.852v.84h2.952V376h.972v-7.62h2.928v-.84zm5.895 8.46h.972l-2.724-8.46h-2.016l-2.736 8.46h.984l1.056-3.312h3.396l1.068 3.312zm-4.188-4.152l1.284-4.032h.276l1.296 4.032h-2.856zm4.528-4.308l2.736 8.46h2.016l2.724-8.46h-.972l-2.628 8.184h-.276l-2.616-8.184h-.984zm8.531 8.46h5.244v-.84h-4.26v-2.976h3.66v-.84h-3.66v-2.964h4.26v-.84h-5.244V376zm6.644 0h.984v-3.396h4.248V376h.984v-3.18c0-.444-.192-.636-.672-.636h-1.008v-.288c.912-.156 1.572-.72 1.572-1.992 0-1.896-1.284-2.364-3.3-2.364h-2.808V376zm.984-4.236v-3.384H148c1.44 0 2.316.132 2.316 1.692 0 1.548-.876 1.692-2.316 1.692h-1.824zm13.565 2.1c0-1.764-1.92-2.22-3.576-2.736-1.392-.432-2.136-.756-2.136-1.644 0-.936.852-1.224 2.016-1.224 1.296 0 2.364.624 2.364 2.064h.984c0-1.38-.852-2.904-3.348-2.904-2.088 0-3 .792-3 2.088 0 1.5 1.212 1.956 2.88 2.46 1.344.396 2.832.66 2.832 1.944 0 1.02-.828 1.368-2.268 1.368-1.776 0-2.844-.444-2.844-2.448h-.984c0 1.98.876 3.288 3.828 3.288 2.496 0 3.252-.996 3.252-2.256zm1.365 2.136h5.244v-.84h-4.26v-2.976h3.66v-.84h-3.66v-2.964h4.26v-.84h-5.244V376zm10.627-4.236c0 2.472 1.476 4.356 3.96 4.356 2.16 0 3.576-1.296 3.828-3.396h-.984c-.192 1.62-1.188 2.556-2.844 2.556-1.968 0-2.976-1.464-2.976-3.516 0-2.04 1.008-3.504 2.976-3.504 1.656 0 2.652.924 2.844 2.544h.984c-.252-2.088-1.668-3.384-3.828-3.384-2.484 0-3.96 1.884-3.96 4.344zm9.035 0c0 2.472 1.464 4.356 3.96 4.356 2.472 0 3.936-1.884 3.936-4.356 0-2.46-1.464-4.344-3.936-4.344-2.496 0-3.96 1.884-3.96 4.344zm.984 0c0-2.016.972-3.504 2.976-3.504 1.992 0 2.952 1.488 2.952 3.504 0 2.028-.96 3.516-2.952 3.516-2.004 0-2.976-1.488-2.976-3.516zm8.312 4.236h.984v-7.476l-.156-.708h.276L195.38 376h1.98v-8.46h-.972v7.476l.156.708h-.276l-4.224-8.184h-1.98V376zm8.669-4.236c0 2.472 1.476 4.356 3.96 4.356 2.16 0 3.576-1.296 3.828-3.396h-.984c-.192 1.62-1.188 2.556-2.844 2.556-1.968 0-2.976-1.464-2.976-3.516 0-2.04 1.008-3.504 2.976-3.504 1.656 0 2.652.924 2.844 2.544h.984c-.252-2.088-1.668-3.384-3.828-3.384-2.484 0-3.96 1.884-3.96 4.344zm9.19 4.236h5.244v-.84h-4.26v-2.976h3.66v-.84h-3.66v-2.964h4.26v-.84h-5.244V376zm9.02-8.46h-2.376V376h.984v-2.916h1.392c2.136 0 3.492-.564 3.492-2.784 0-2.208-1.356-2.76-3.492-2.76zm.012 4.704h-1.404v-3.864h1.404c1.44 0 2.496.264 2.496 1.92 0 1.68-1.056 1.944-2.496 1.944zm10.89-4.704h-6.852v.84h2.952V376h.972v-7.62h2.928v-.84zm1.166 5.316c0 2.112 1.044 3.264 3.348 3.264 2.316 0 3.36-1.152 3.36-3.264v-5.316h-.984v5.16c0 1.716-.612 2.58-2.376 2.58s-2.364-.864-2.364-2.58v-5.16h-.984v5.316zm13.94 3.144h.972l-2.724-8.46h-2.016l-2.736 8.46h.984l1.056-3.312h3.396l1.068 3.312zm-4.188-4.152l1.284-4.032h.276l1.296 4.032h-2.856zm7.064 4.272l4.512-.12v-.84l-4.26.12v-7.74h-.984v7.86c0 .456.264.732.732.72zm10.427-7.74v-.84h-4.764v.84h1.896v6.78h-1.896v.84h4.764v-.84h-1.884v-6.78h1.884zm1.374 7.62h6.552v-.84h-5.592l-.672.156v-.276l6.264-5.604v-1.896h-6.552v.84h5.592l.672-.156v.276l-6.264 5.604V376zm14.092 0h.972l-2.724-8.46h-2.016l-2.736 8.46h.984l1.056-3.312h3.396L271.72 376zm-4.188-4.152l1.284-4.032h.276l1.296 4.032h-2.856zm11.383-4.308h-6.852v.84h2.952V376h.972v-7.62h2.928v-.84zm6.05.84v-.84h-4.764v.84h1.896v6.78h-1.896v.84h4.764v-.84h-1.884v-6.78h1.884zm.58 3.384c0 2.472 1.464 4.356 3.96 4.356 2.472 0 3.936-1.884 3.936-4.356 0-2.46-1.464-4.344-3.936-4.344-2.496 0-3.96 1.884-3.96 4.344zm.984 0c0-2.016.972-3.504 2.976-3.504 1.992 0 2.952 1.488 2.952 3.504 0 2.028-.96 3.516-2.952 3.516-2.004 0-2.976-1.488-2.976-3.516zm8.312 4.236h.984v-7.476l-.156-.708h.276l4.212 8.184h1.98v-8.46h-.972v7.476l.156.708h-.276l-4.224-8.184h-1.98V376z"/><circle cx="75" cy="339" r="5"/><path d="M106.596 339.864c0-1.764-1.92-2.22-3.576-2.736-1.392-.432-2.136-.756-2.136-1.644 0-.936.852-1.224 2.016-1.224 1.296 0 2.364.624 2.364 2.064h.984c0-1.38-.852-2.904-3.348-2.904-2.088 0-3 .792-3 2.088 0 1.5 1.212 1.956 2.88 2.46 1.344.396 2.832.66 2.832 1.944 0 1.02-.828 1.368-2.268 1.368-1.776 0-2.844-.444-2.844-2.448h-.984c0 1.98.876 3.288 3.828 3.288 2.496 0 3.252-.996 3.252-2.256zm1.366 2.136h5.244v-.84h-4.26v-2.976h3.66v-.84h-3.66v-2.964h4.26v-.84h-5.244V342zm6.644 0h5.244v-.84h-4.26v-2.976h3.66v-.84h-3.66v-2.964h4.26v-.84h-5.244V342zm9.333-8.46h-2.688V342h2.688c2.052 0 4.236-.588 4.236-4.236 0-3.636-2.184-4.224-4.236-4.224zm0 7.62h-1.704v-6.78h1.704c1.5 0 3.252.264 3.252 3.384 0 3.132-1.752 3.396-3.252 3.396zm9.851.84h.984v-3.396l3.996-.24v-.852l-3.996.24v-3.372h4.56v-.84h-5.544V342zm6.815-3.144c0 2.112 1.044 3.264 3.348 3.264 2.316 0 3.36-1.152 3.36-3.264v-5.316h-.984v5.16c0 1.716-.612 2.58-2.376 2.58s-2.364-.864-2.364-2.58v-5.16h-.984v5.316zm8.197 3.144h.984v-7.476l-.156-.708h.276l4.212 8.184h1.98v-8.46h-.972v7.476l.156.708h-.276l-4.224-8.184h-1.98V342zm11.606-8.46h-2.688V342h2.688c2.052 0 4.236-.588 4.236-4.236 0-3.636-2.184-4.224-4.236-4.224zm0 7.62h-1.704v-6.78h1.704c1.5 0 3.252.264 3.252 3.384 0 3.132-1.752 3.396-3.252 3.396zm9.585-6.78v-.84h-4.764v.84h1.896v6.78h-1.896v.84h4.764v-.84h-1.884v-6.78h1.884zm1.496 7.62h.984v-7.476l-.156-.708h.276l4.212 8.184h1.98v-8.46h-.972v7.476l.156.708h-.276l-4.224-8.184h-1.98V342zm8.669-4.236c0 2.496 1.224 4.356 3.708 4.356 2.184 0 3.324-1.404 3.336-4.356h.276l-.156 1.08V342h.984v-3.852c0-.444-.228-.66-.72-.66h-4.176v.792h2.892c.036 2.028-.756 3-2.424 3-1.98 0-2.736-1.44-2.736-3.516 0-2.064 1.032-3.504 3.012-3.504 1.668 0 2.376.912 2.568 2.304h.984c-.252-1.848-1.428-3.144-3.552-3.144-2.448 0-3.996 1.86-3.996 4.344zm13.89 4.236h.984v-3.396h4.248V342h.984v-3.18c0-.444-.192-.636-.672-.636h-1.008v-.288c.912-.156 1.572-.72 1.572-1.992 0-1.896-1.284-2.364-3.3-2.364h-2.808V342zm.984-4.236v-3.384h1.824c1.44 0 2.316.132 2.316 1.692 0 1.548-.876 1.692-2.316 1.692h-1.824zm6.583 0c0 2.472 1.464 4.356 3.96 4.356 2.472 0 3.936-1.884 3.936-4.356 0-2.46-1.464-4.344-3.936-4.344-2.496 0-3.96 1.884-3.96 4.344zm.984 0c0-2.016.972-3.504 2.976-3.504 1.992 0 2.952 1.488 2.952 3.504 0 2.028-.96 3.516-2.952 3.516-2.004 0-2.976-1.488-2.976-3.516zm8.283 1.092c0 2.112 1.044 3.264 3.348 3.264 2.316 0 3.36-1.152 3.36-3.264v-5.316h-.984v5.16c0 1.716-.612 2.58-2.376 2.58s-2.364-.864-2.364-2.58v-5.16h-.984v5.316zm8.197 3.144h.984v-7.476l-.156-.708h.276l4.212 8.184h1.98v-8.46h-.972v7.476l.156.708h-.276l-4.224-8.184h-1.98V342zm11.606-8.46h-2.688V342h2.688c2.052 0 4.236-.588 4.236-4.236 0-3.636-2.184-4.224-4.236-4.224zm0 7.62h-1.704v-6.78h1.704c1.5 0 3.252.264 3.252 3.384 0 3.132-1.752 3.396-3.252 3.396z"/><circle cx="75" cy="305" r="5"/><path d="M99.876 308h.984v-7.476l-.156-.708h.276l2.424 8.184h1.98l2.424-8.184h.288l-.168.708V308h.984v-8.46h-1.968l-2.412 8.184h-.276l-2.4-8.184h-1.98V308zm16.7 0h.972l-2.724-8.46h-2.016l-2.736 8.46h.984l1.056-3.312h3.396l1.068 3.312zm-4.188-4.152l1.284-4.032h.276l1.296 4.032h-2.856zm7.064 4.272l4.512-.12v-.84l-4.26.12v-7.74h-.984v7.86c0 .456.264.732.732.72zm6.515 0l4.512-.12v-.84l-4.26.12v-7.74h-.984v7.86c0 .456.264.732.732.72zm16.26-8.58h-6.852v.84h2.952V308h.972v-7.62h2.928v-.84zm.15 4.224c0 2.472 1.464 4.356 3.96 4.356 2.472 0 3.936-1.884 3.936-4.356 0-2.46-1.464-4.344-3.936-4.344-2.496 0-3.96 1.884-3.96 4.344zm.984 0c0-2.016.972-3.504 2.976-3.504 1.992 0 2.952 1.488 2.952 3.504 0 2.028-.96 3.516-2.952 3.516-2.004 0-2.976-1.488-2.976-3.516zm15.08-4.224h-1.416l-4.368 3.6v-3.6h-.984V308h.984v-3.6l4.368 3.6h1.416l-5.16-4.236 5.16-4.224zm1.142 8.46h5.244v-.84h-4.26v-2.976h3.66v-.84h-3.66v-2.964h4.26v-.84h-5.244V308zm6.645 0h.984v-7.476l-.156-.708h.276l4.212 8.184h1.98v-8.46h-.972v7.476l.156.708h-.276l-4.224-8.184h-1.98V308zm15.731-8.46h-2.688V308h2.688c2.052 0 4.236-.588 4.236-4.236 0-3.636-2.184-4.224-4.236-4.224zm0 7.62h-1.704v-6.78h1.704c1.5 0 3.252.264 3.252 3.384 0 3.132-1.752 3.396-3.252 3.396zm5.632.84h5.244v-.84h-4.26v-2.976h3.66v-.84h-3.66v-2.964h4.26v-.84h-5.244V308zm6.282-8.46l2.736 8.46h2.016l2.724-8.46h-.972l-2.628 8.184h-.276l-2.616-8.184h-.984zm8.53 8.46h5.244v-.84h-4.26v-2.976h3.66v-.84h-3.66v-2.964h4.26v-.84h-5.244V308zm7.377.12l4.512-.12v-.84l-4.26.12v-7.74h-.984v7.86c0 .456.264.732.732.72zm4.703-4.356c0 2.472 1.464 4.356 3.96 4.356 2.472 0 3.936-1.884 3.936-4.356 0-2.46-1.464-4.344-3.936-4.344-2.496 0-3.96 1.884-3.96 4.344zm.984 0c0-2.016.972-3.504 2.976-3.504 1.992 0 2.952 1.488 2.952 3.504 0 2.028-.96 3.516-2.952 3.516-2.004 0-2.976-1.488-2.976-3.516zm10.687-4.224h-2.376V308h.984v-2.916h1.392c2.136 0 3.492-.564 3.492-2.784 0-2.208-1.356-2.76-3.492-2.76zm.012 4.704h-1.404v-3.864h1.404c1.44 0 2.496.264 2.496 1.92 0 1.68-1.056 1.944-2.496 1.944zm4.761 3.756h.984v-7.476l-.156-.708h.276l2.424 8.184h1.98l2.424-8.184h.288l-.168.708V308h.984v-8.46h-1.968l-2.412 8.184h-.276l-2.4-8.184h-1.98V308zm10.652 0h5.244v-.84h-4.26v-2.976h3.66v-.84h-3.66v-2.964h4.26v-.84h-5.244V308zm6.645 0h.984v-7.476l-.156-.708h.276L253.54 308h1.98v-8.46h-.972v7.476l.156.708h-.276l-4.224-8.184h-1.98V308zm15.316-8.46h-6.852v.84h2.952V308h.972v-7.62h2.928v-.84z"/><circle cx="75" cy="271" r="5"/><path d="M106.596 271.864c0-1.764-1.92-2.22-3.576-2.736-1.392-.432-2.136-.756-2.136-1.644 0-.936.852-1.224 2.016-1.224 1.296 0 2.364.624 2.364 2.064h.984c0-1.38-.852-2.904-3.348-2.904-2.088 0-3 .792-3 2.088 0 1.5 1.212 1.956 2.88 2.46 1.344.396 2.832.66 2.832 1.944 0 1.02-.828 1.368-2.268 1.368-1.776 0-2.844-.444-2.844-2.448h-.984c0 1.98.876 3.288 3.828 3.288 2.496 0 3.252-.996 3.252-2.256zm7.038-6.324h-6.852v.84h2.952V274h.972v-7.62h2.928v-.84zm1.172 8.46h.984v-3.396h4.248V274h.984v-3.18c0-.444-.192-.636-.672-.636h-1.008v-.288c.912-.156 1.572-.72 1.572-1.992 0-1.896-1.284-2.364-3.3-2.364h-2.808V274zm.984-4.236v-3.384h1.824c1.44 0 2.316.132 2.316 1.692 0 1.548-.876 1.692-2.316 1.692h-1.824zM128.775 274h.972l-2.724-8.46h-2.016l-2.736 8.46h.984l1.056-3.312h3.396l1.068 3.312zm-4.188-4.152l1.284-4.032h.276l1.296 4.032h-2.856zm11.383-4.308h-6.852v.84h2.952V274h.972v-7.62h2.928v-.84zm1.172 8.46h5.244v-.84h-4.26v-2.976h3.66v-.84h-3.66v-2.964h4.26v-.84h-5.244V274zm6.044-4.236c0 2.496 1.224 4.356 3.708 4.356 2.184 0 3.324-1.404 3.336-4.356h.276l-.156 1.08V274h.984v-3.852c0-.444-.228-.66-.72-.66h-4.176v.792h2.892c.036 2.028-.756 3-2.424 3-1.98 0-2.736-1.44-2.736-3.516 0-2.064 1.032-3.504 3.012-3.504 1.668 0 2.376.912 2.568 2.304h.984c-.252-1.848-1.428-3.144-3.552-3.144-2.448 0-3.996 1.86-3.996 4.344zm14.186-3.384v-.84h-4.764v.84h1.896v6.78h-1.896v.84h4.764v-.84h-1.884v-6.78h1.884zm.579 3.384c0 2.472 1.476 4.356 3.96 4.356 2.16 0 3.576-1.296 3.828-3.396h-.984c-.192 1.62-1.188 2.556-2.844 2.556-1.968 0-2.976-1.464-2.976-3.516 0-2.04 1.008-3.504 2.976-3.504 1.656 0 2.652.924 2.844 2.544h.984c-.252-2.088-1.668-3.384-3.828-3.384-2.484 0-3.96 1.884-3.96 4.344zm20.129 2.1c0-1.764-1.92-2.22-3.576-2.736-1.392-.432-2.136-.756-2.136-1.644 0-.936.852-1.224 2.016-1.224 1.296 0 2.364.624 2.364 2.064h.984c0-1.38-.852-2.904-3.348-2.904-2.088 0-3 .792-3 2.088 0 1.5 1.212 1.956 2.88 2.46 1.344.396 2.832.66 2.832 1.944 0 1.02-.828 1.368-2.268 1.368-1.776 0-2.844-.444-2.844-2.448H171c0 1.98.876 3.288 3.828 3.288 2.496 0 3.252-.996 3.252-2.256zm7.273 2.136h.972l-2.724-8.46h-2.016l-2.736 8.46h.984l1.056-3.312h3.396l1.068 3.312zm-4.188-4.152l1.284-4.032h.276l1.296 4.032h-2.856zm7.064 4.272l4.512-.12v-.84l-4.26.12v-7.74h-.984v7.86c0 .456.264.732.732.72zm5.784-.12h5.244v-.84h-4.26v-2.976h3.66v-.84h-3.66v-2.964h4.26v-.84h-5.244V274zm10.746 0h.984v-3.396h4.248V274h.984v-3.18c0-.444-.192-.636-.672-.636h-1.008v-.288c.912-.156 1.572-.72 1.572-1.992 0-1.896-1.284-2.364-3.3-2.364h-2.808V274zm.984-4.236v-3.384h1.824c1.44 0 2.316.132 2.316 1.692 0 1.548-.876 1.692-2.316 1.692h-1.824zm6.583 0c0 2.472 1.464 4.356 3.96 4.356 2.472 0 3.936-1.884 3.936-4.356 0-2.46-1.464-4.344-3.936-4.344-2.496 0-3.96 1.884-3.96 4.344zm.984 0c0-2.016.972-3.504 2.976-3.504 1.992 0 2.952 1.488 2.952 3.504 0 2.028-.96 3.516-2.952 3.516-2.004 0-2.976-1.488-2.976-3.516zm8.283 1.092c0 2.112 1.044 3.264 3.348 3.264 2.316 0 3.36-1.152 3.36-3.264v-5.316h-.984v5.16c0 1.716-.612 2.58-2.376 2.58s-2.364-.864-2.364-2.58v-5.16h-.984v5.316zM229.79 274h.984v-7.476l-.156-.708h.276l4.212 8.184h1.98v-8.46h-.972v7.476l.156.708h-.276l-4.224-8.184h-1.98V274zm11.606-8.46h-2.688V274h2.688c2.052 0 4.236-.588 4.236-4.236 0-3.636-2.184-4.224-4.236-4.224zm0 7.62h-1.704v-6.78h1.704c1.5 0 3.252.264 3.252 3.384 0 3.132-1.752 3.396-3.252 3.396z"/><circle cx="75" cy="237" r="5"/><path d="M102.252 231.54h-2.376V240h.984v-2.916h1.392c2.136 0 3.492-.564 3.492-2.784 0-2.208-1.356-2.76-3.492-2.76zm.012 4.704h-1.404v-3.864h1.404c1.44 0 2.496.264 2.496 1.92 0 1.68-1.056 1.944-2.496 1.944zm4.76 3.756h.984v-3.396h4.248V240h.984v-3.18c0-.444-.192-.636-.672-.636h-1.008v-.288c.912-.156 1.572-.72 1.572-1.992 0-1.896-1.284-2.364-3.3-2.364h-2.808V240zm.984-4.236v-3.384h1.824c1.44 0 2.316.132 2.316 1.692 0 1.548-.876 1.692-2.316 1.692h-1.824zm11.395-3.384v-.84h-4.764v.84h1.896v6.78h-1.896v.84h4.764v-.84h-1.884v-6.78h1.884zm1.157-.84l2.736 8.46h2.016l2.724-8.46h-.972l-2.628 8.184h-.276l-2.616-8.184h-.984zm13.231 8.46h.972l-2.724-8.46h-2.016l-2.736 8.46h.984l1.056-3.312h3.396l1.068 3.312zm-4.188-4.152l1.284-4.032h.276l1.296 4.032h-2.856zm11.382-4.308h-6.852v.84h2.952V240h.972v-7.62h2.928v-.84zm1.172 8.46h5.244v-.84h-4.26v-2.976h3.66v-.84h-3.66v-2.964h4.26v-.84h-5.244V240zm17.466-2.136c0-1.764-1.92-2.22-3.576-2.736-1.392-.432-2.136-.756-2.136-1.644 0-.936.852-1.224 2.016-1.224 1.296 0 2.364.624 2.364 2.064h.984c0-1.38-.852-2.904-3.348-2.904-2.088 0-3 .792-3 2.088 0 1.5 1.212 1.956 2.88 2.46 1.344.396 2.832.66 2.832 1.944 0 1.02-.828 1.368-2.268 1.368-1.776 0-2.844-.444-2.844-2.448h-.984c0 1.98.876 3.288 3.828 3.288 2.496 0 3.252-.996 3.252-2.256zm7.273 2.136h.972l-2.724-8.46h-2.016l-2.736 8.46h.984l1.056-3.312h3.396l1.068 3.312zm-4.188-4.152l1.284-4.032h.276l1.296 4.032h-2.856zm7.064 4.272l4.512-.12v-.84l-4.26.12v-7.74h-.984v7.86c0 .456.264.732.732.72zm5.784-.12h5.244v-.84h-4.26v-2.976h3.66v-.84h-3.66v-2.964h4.26v-.84h-5.244V240zm10.746 0h.984v-3.396h4.248V240h.984v-3.18c0-.444-.192-.636-.672-.636h-1.008v-.288c.912-.156 1.572-.72 1.572-1.992 0-1.896-1.284-2.364-3.3-2.364h-2.808V240zm.984-4.236v-3.384h1.824c1.44 0 2.316.132 2.316 1.692 0 1.548-.876 1.692-2.316 1.692h-1.824zm6.583 0c0 2.472 1.464 4.356 3.96 4.356 2.472 0 3.936-1.884 3.936-4.356 0-2.46-1.464-4.344-3.936-4.344-2.496 0-3.96 1.884-3.96 4.344zm.984 0c0-2.016.972-3.504 2.976-3.504 1.992 0 2.952 1.488 2.952 3.504 0 2.028-.96 3.516-2.952 3.516-2.004 0-2.976-1.488-2.976-3.516zm8.283 1.092c0 2.112 1.044 3.264 3.348 3.264 2.316 0 3.36-1.152 3.36-3.264v-5.316h-.984v5.16c0 1.716-.612 2.58-2.376 2.58s-2.364-.864-2.364-2.58v-5.16h-.984v5.316zm8.197 3.144h.984v-7.476l-.156-.708h.276l4.212 8.184h1.98v-8.46h-.972v7.476l.156.708h-.276l-4.224-8.184h-1.98V240zm11.606-8.46h-2.688V240h2.688c2.052 0 4.236-.588 4.236-4.236 0-3.636-2.184-4.224-4.236-4.224zm0 7.62h-1.704v-6.78h1.704c1.5 0 3.252.264 3.252 3.384 0 3.132-1.752 3.396-3.252 3.396z"/><circle cx="75" cy="625" r="5"/><path d="M102.252 619.54h-2.376V628h.984v-2.916h1.392c2.136 0 3.492-.564 3.492-2.784 0-2.208-1.356-2.76-3.492-2.76zm.012 4.704h-1.404v-3.864h1.404c1.44 0 2.496.264 2.496 1.92 0 1.68-1.056 1.944-2.496 1.944zm4.755.612c0 2.112 1.044 3.264 3.348 3.264 2.316 0 3.36-1.152 3.36-3.264v-5.316h-.984v5.16c0 1.716-.612 2.58-2.376 2.58s-2.364-.864-2.364-2.58v-5.16h-.984v5.316zm8.197 3.144H118c2.052 0 3.336-.54 3.336-2.244 0-1.512-1.02-2.04-2.316-2.064v-.288c.876-.06 1.692-.564 1.692-1.788 0-1.668-1.188-2.076-3.252-2.076h-2.244V628zm.984-4.824v-2.796h1.296c1.38 0 2.232.084 2.232 1.392 0 1.2-.852 1.404-2.232 1.404H116.2zm0 3.984v-3.144h1.836c1.44 0 2.316.336 2.316 1.572 0 1.332-.876 1.572-2.316 1.572H116.2zm7.236.96l4.512-.12v-.84l-4.26.12v-7.74h-.984v7.86c0 .456.264.732.732.72zm10.428-7.74v-.84H129.1v.84h1.896v6.78H129.1v.84h4.764v-.84h-1.884v-6.78h1.884zm.58 3.384c0 2.472 1.476 4.356 3.96 4.356 2.16 0 3.576-1.296 3.828-3.396h-.984c-.192 1.62-1.188 2.556-2.844 2.556-1.968 0-2.976-1.464-2.976-3.516 0-2.04 1.008-3.504 2.976-3.504 1.656 0 2.652.924 2.844 2.544h.984c-.252-2.088-1.668-3.384-3.828-3.384-2.484 0-3.96 1.884-3.96 4.344zm20.129 2.1c0-1.764-1.92-2.22-3.576-2.736-1.392-.432-2.136-.756-2.136-1.644 0-.936.852-1.224 2.016-1.224 1.296 0 2.364.624 2.364 2.064h.984c0-1.38-.852-2.904-3.348-2.904-2.088 0-3 .792-3 2.088 0 1.5 1.212 1.956 2.88 2.46 1.344.396 2.832.66 2.832 1.944 0 1.02-.828 1.368-2.268 1.368-1.776 0-2.844-.444-2.844-2.448h-.984c0 1.98.876 3.288 3.828 3.288 2.496 0 3.252-.996 3.252-2.256zm7.272 2.136h.972l-2.724-8.46h-2.016l-2.736 8.46h.984l1.056-3.312h3.396l1.068 3.312zm-4.188-4.152l1.284-4.032h.276l1.296 4.032h-2.856zm7.064 4.272l4.512-.12v-.84l-4.26.12v-7.74h-.984v7.86c0 .456.264.732.732.72zm5.784-.12h5.244v-.84h-4.26v-2.976h3.66v-.84h-3.66v-2.964h4.26v-.84h-5.244V628z"/><circle cx="75" cy="591" r="5"/><path d="M99.876 594h.984v-7.476l-.156-.708h.276l4.212 8.184h1.98v-8.46h-.972v7.476l.156.708h-.276l-4.224-8.184h-1.98V594zm8.918 0h.984v-3.396l3.996-.24v-.852l-3.996.24v-3.372h4.56v-.84h-5.544V594zm13.547-8.46h-6.852v.84h2.952V594h.972v-7.62h2.928v-.84zm5.39 8.46h.984v-7.476l-.156-.708h.276l2.424 8.184h1.98l2.424-8.184h.288l-.168.708V594h.984v-8.46h-1.968l-2.412 8.184h-.276l-2.4-8.184h-1.98V594zm16.7 0h.972l-2.724-8.46h-2.016l-2.736 8.46h.984l1.056-3.312h3.396l1.068 3.312zm-4.188-4.152l1.284-4.032h.276l1.296 4.032h-2.856zm6.332 4.152h.984v-3.396h4.248V594h.984v-3.18c0-.444-.192-.636-.672-.636h-1.008v-.288c.912-.156 1.572-.72 1.572-1.992 0-1.896-1.284-2.364-3.3-2.364h-2.808V594zm.984-4.236v-3.384h1.824c1.44 0 2.316.132 2.316 1.692 0 1.548-.876 1.692-2.316 1.692h-1.824zm13.612-4.224h-1.416l-4.368 3.6v-3.6h-.984V594h.984v-3.6l4.368 3.6h1.416l-5.16-4.236 5.16-4.224zm1.143 8.46h5.244v-.84h-4.26v-2.976h3.66v-.84h-3.66v-2.964h4.26v-.84h-5.244V594zm13.253-8.46h-6.852v.84h2.952V594h.972v-7.62h2.928v-.84zm3.548 0h-2.376V594h.984v-2.916h1.392c2.136 0 3.492-.564 3.492-2.784 0-2.208-1.356-2.76-3.492-2.76zm.012 4.704h-1.404v-3.864h1.404c1.44 0 2.496.264 2.496 1.92 0 1.68-1.056 1.944-2.496 1.944zm5.493 3.876l4.512-.12v-.84l-4.26.12v-7.74h-.984v7.86c0 .456.264.732.732.72zm11.807-.12h.972l-2.724-8.46h-2.016l-2.736 8.46h.984l1.056-3.312h3.396l1.068 3.312zm-4.188-4.152l1.284-4.032h.276l1.296 4.032h-2.856zm5.615-.084c0 2.472 1.476 4.356 3.96 4.356 2.16 0 3.576-1.296 3.828-3.396h-.984c-.192 1.62-1.188 2.556-2.844 2.556-1.968 0-2.976-1.464-2.976-3.516 0-2.04 1.008-3.504 2.976-3.504 1.656 0 2.652.924 2.844 2.544h.984c-.252-2.088-1.668-3.384-3.828-3.384-2.484 0-3.96 1.884-3.96 4.344zm9.19 4.236h5.244v-.84h-4.26v-2.976h3.66v-.84h-3.66v-2.964h4.26v-.84h-5.244V594zm11.478.12l4.512-.12v-.84l-4.26.12v-7.74h-.984v7.86c0 .456.264.732.732.72zm11.808-.12h.972l-2.724-8.46h-2.016l-2.736 8.46h.984l1.056-3.312h3.396L230.33 594zm-4.188-4.152l1.284-4.032h.276l1.296 4.032h-2.856zm5.846 1.008c0 2.112 1.044 3.264 3.348 3.264 2.316 0 3.36-1.152 3.36-3.264v-5.316h-.984v5.16c0 1.716-.612 2.58-2.376 2.58s-2.364-.864-2.364-2.58v-5.16h-.984v5.316zm8.197 3.144h.984v-7.476l-.156-.708h.276l4.212 8.184h1.98v-8.46h-.972v7.476l.156.708h-.276l-4.224-8.184h-1.98V594zm8.669-4.236c0 2.472 1.476 4.356 3.96 4.356 2.16 0 3.576-1.296 3.828-3.396h-.984c-.192 1.62-1.188 2.556-2.844 2.556-1.968 0-2.976-1.464-2.976-3.516 0-2.04 1.008-3.504 2.976-3.504 1.656 0 2.652.924 2.844 2.544h.984c-.252-2.088-1.668-3.384-3.828-3.384-2.484 0-3.96 1.884-3.96 4.344zm15.166-4.224v3.864h-4.992v-3.864h-.984V594h.984v-3.756h4.992V594h.972v-8.46h-.972z"/><circle cx="75" cy="557" r="5"/><path d="M99.624 555.296l.312.84c2.1-.684 2.64-2.448 2.76-4.32h.288l-.168.684v7.5h.984v-8.46h-1.992c-.024 1.668-.576 3.108-2.184 3.756zm12.761 2.568c0-1.764-1.92-2.22-3.576-2.736-1.392-.432-2.136-.756-2.136-1.644 0-.936.852-1.224 2.016-1.224 1.296 0 2.364.624 2.364 2.064h.984c0-1.38-.852-2.904-3.348-2.904-2.088 0-3 .792-3 2.088 0 1.5 1.212 1.956 2.88 2.46 1.344.396 2.832.66 2.832 1.944 0 1.02-.828 1.368-2.268 1.368-1.776 0-2.844-.444-2.844-2.448h-.984c0 1.98.876 3.288 3.828 3.288 2.496 0 3.252-.996 3.252-2.256zm7.038-6.324h-6.852v.84h2.952V560h.972v-7.62h2.928v-.84zm5.391 8.46h.984v-7.476l-.156-.708h.276L130.13 560h1.98v-8.46h-.972v7.476l.156.708h-.276l-4.224-8.184h-1.98V560zm8.917 0h.984v-3.396l3.996-.24v-.852l-3.996.24v-3.372h4.56v-.84h-5.544V560zm13.547-8.46h-6.852v.84h2.952V560h.972v-7.62h2.928v-.84zm5.391 8.46h.984v-3.396h4.248V560h.984v-3.18c0-.444-.192-.636-.672-.636h-1.008v-.288c.912-.156 1.572-.72 1.572-1.992 0-1.896-1.284-2.364-3.3-2.364h-2.808V560zm.984-4.236v-3.384h1.824c1.44 0 2.316.132 2.316 1.692 0 1.548-.876 1.692-2.316 1.692h-1.824zm6.844 4.236h5.244v-.84h-4.26v-2.976h3.66v-.84h-3.66v-2.964h4.26v-.84h-5.244V560zm12.786 0h.972l-2.724-8.46h-2.016l-2.736 8.46h.984l1.056-3.312h3.396l1.068 3.312zm-4.188-4.152l1.284-4.032h.276l1.296 4.032h-2.856zm7.064 4.272l4.512-.12v-.84l-4.26.12v-7.74h-.984v7.86c0 .456.264.732.732.72zm9.768-.12h5.244v-.84h-4.26v-2.976h3.66v-.84h-3.66v-2.964h4.26v-.84h-5.244V560zm13.247-2.136c0-1.764-1.92-2.22-3.576-2.736-1.392-.432-2.136-.756-2.136-1.644 0-.936.852-1.224 2.016-1.224 1.296 0 2.364.624 2.364 2.064h.984c0-1.38-.852-2.904-3.348-2.904-2.088 0-3 .792-3 2.088 0 1.5 1.212 1.956 2.88 2.46 1.344.396 2.832.66 2.832 1.944 0 1.02-.828 1.368-2.268 1.368-1.776 0-2.844-.444-2.844-2.448h-.984c0 1.98.876 3.288 3.828 3.288 2.496 0 3.252-.996 3.252-2.256zm7.038-6.324h-6.852v.84h2.952V560h.972v-7.62h2.928v-.84zm5.895 8.46h.972l-2.724-8.46h-2.016l-2.736 8.46h.984l1.056-3.312h3.396l1.068 3.312zm-4.188-4.152l1.284-4.032h.276l1.296 4.032h-2.856zm11.383-4.308h-6.852v.84h2.952V560h.972v-7.62h2.928v-.84zm1.172 8.46h5.244v-.84h-4.26v-2.976h3.66v-.84h-3.66v-2.964h4.26v-.84h-5.244V560zm17.466-2.136c0-1.764-1.92-2.22-3.576-2.736-1.392-.432-2.136-.756-2.136-1.644 0-.936.852-1.224 2.016-1.224 1.296 0 2.364.624 2.364 2.064h.984c0-1.38-.852-2.904-3.348-2.904-2.088 0-3 .792-3 2.088 0 1.5 1.212 1.956 2.88 2.46 1.344.396 2.832.66 2.832 1.944 0 1.02-.828 1.368-2.268 1.368-1.776 0-2.844-.444-2.844-2.448h-.984c0 1.98.876 3.288 3.828 3.288 2.496 0 3.252-.996 3.252-2.256zm7.273 2.136h.972l-2.724-8.46h-2.016l-2.737 8.46h.985l1.056-3.312h3.396l1.068 3.312zm-4.188-4.152l1.284-4.032h.276l1.296 4.032h-2.856zm7.063 4.272l4.512-.12v-.84l-4.26.12v-7.74h-.984v7.86c0 .456.264.732.732.72zm5.784-.12h5.244v-.84h-4.26v-2.976h3.66v-.84h-3.66v-2.964h4.26v-.84h-5.244V560z"/><circle cx="75" cy="523" r="5"/><path d="M102.564 517.54h-2.688V526h2.688c2.052 0 4.236-.588 4.236-4.236 0-3.636-2.184-4.224-4.236-4.224zm0 7.62h-1.704v-6.78h1.704c1.5 0 3.252.264 3.252 3.384 0 3.132-1.752 3.396-3.252 3.396zm5.632.84h5.244v-.84h-4.26v-2.976h3.66v-.84h-3.66v-2.964h4.26v-.84h-5.244V526zm6.282 0h1.128l2.592-3.648 2.604 3.648h1.116l-2.94-4.056v-.36l2.94-4.044h-1.116l-2.604 3.636-2.592-3.636h-1.128l2.94 4.044v.36l-2.94 4.056zm18.727 0h.972l-2.724-8.46h-2.016l-2.736 8.46h.984l1.056-3.312h3.396l1.068 3.312zm-4.188-4.152l1.284-4.032h.276l1.296 4.032h-2.856zm6.332 4.152h.984v-7.476l-.156-.708h.276l4.212 8.184h1.98v-8.46h-.972v7.476l.156.708h-.276l-4.224-8.184h-1.98V526zm11.606-8.46h-2.688V526h2.688c2.052 0 4.236-.588 4.236-4.236 0-3.636-2.184-4.224-4.236-4.224zm0 7.62h-1.704v-6.78h1.704c1.5 0 3.252.264 3.252 3.384 0 3.132-1.752 3.396-3.252 3.396zm12.227-7.62h-2.376V526h.984v-2.916h1.392c2.136 0 3.492-.564 3.492-2.784 0-2.208-1.356-2.76-3.492-2.76zm.012 4.704h-1.404v-3.864h1.404c1.44 0 2.496.264 2.496 1.92 0 1.68-1.056 1.944-2.496 1.944zm4.76 3.756h.984v-3.396h4.248V526h.984v-3.18c0-.444-.192-.636-.672-.636h-1.008v-.288c.912-.156 1.572-.72 1.572-1.992 0-1.896-1.284-2.364-3.3-2.364h-2.808V526zm.984-4.236v-3.384h1.824c1.44 0 2.316.132 2.316 1.692 0 1.548-.876 1.692-2.316 1.692h-1.824zm11.395-3.384v-.84h-4.764v.84h1.896v6.78h-1.896v.84h4.764v-.84h-1.884v-6.78h1.884zm1.157-.84l2.736 8.46h2.016l2.724-8.46h-.972l-2.628 8.184h-.276l-2.616-8.184h-.984zm13.23 8.46h.972l-2.724-8.46h-2.016l-2.736 8.46h.984l1.056-3.312h3.396L190.72 526zm-4.188-4.152l1.284-4.032h.276l1.296 4.032h-2.856zm11.383-4.308h-6.852v.84h2.952V526h.972v-7.62h2.928v-.84zm1.172 8.46h5.244v-.84h-4.26v-2.976h3.66v-.84h-3.66v-2.964h4.26v-.84h-5.244V526zm10.746 0h5.244v-.84h-4.26v-2.976h3.66v-.84h-3.66v-2.964h4.26v-.84h-5.244V526zm6.282 0h1.128l2.592-3.648 2.604 3.648h1.116l-2.94-4.056v-.36l2.94-4.044h-1.116l-2.604 3.636-2.592-3.636h-1.128l2.94 4.044v.36l-2.94 4.056zm7.461-4.236c0 2.472 1.476 4.356 3.96 4.356 2.16 0 3.576-1.296 3.828-3.396h-.984c-.192 1.62-1.188 2.556-2.844 2.556-1.968 0-2.976-1.464-2.976-3.516 0-2.04 1.008-3.504 2.976-3.504 1.656 0 2.652.924 2.844 2.544h.984c-.252-2.088-1.668-3.384-3.828-3.384-2.484 0-3.96 1.884-3.96 4.344zm15.167-4.224v3.864h-4.992v-3.864h-.984V526h.984v-3.756h4.992V526h.972v-8.46h-.972zm8.637 8.46h.972l-2.724-8.46h-2.016l-2.736 8.46h.984l1.056-3.312h3.396L247.38 526zm-4.188-4.152l1.284-4.032h.276l1.296 4.032h-2.856zm6.332 4.152h.984v-7.476l-.156-.708h.276L254.84 526h1.98v-8.46h-.972v7.476l.156.708h-.276l-4.224-8.184h-1.98V526zm8.67-4.236c0 2.496 1.224 4.356 3.708 4.356 2.184 0 3.324-1.404 3.336-4.356h.276l-.156 1.08V526h.984v-3.852c0-.444-.228-.66-.72-.66h-4.176v.792h2.892c.036 2.028-.756 3-2.424 3-1.98 0-2.736-1.44-2.736-3.516 0-2.064 1.032-3.504 3.012-3.504 1.668 0 2.376.912 2.568 2.304h.984c-.252-1.848-1.428-3.144-3.552-3.144-2.448 0-3.996 1.86-3.996 4.344zm9.518 4.236h5.244v-.84h-4.26v-2.976h3.66v-.84h-3.66v-2.964h4.26v-.84h-5.244V526zm11.478.12l4.512-.12v-.84l-4.26.12v-7.74h-.984v7.86c0 .456.264.732.732.72zm10.428-7.74v-.84h-4.764v.84h1.896v6.78h-1.896v.84h4.764v-.84h-1.884v-6.78h1.884zm7.876 5.484c0-1.764-1.92-2.22-3.576-2.736-1.392-.432-2.136-.756-2.136-1.644 0-.936.852-1.224 2.016-1.224 1.296 0 2.364.624 2.364 2.064h.984c0-1.38-.852-2.904-3.348-2.904-2.088 0-3 .792-3 2.088 0 1.5 1.212 1.956 2.88 2.46 1.344.396 2.832.66 2.832 1.944 0 1.02-.828 1.368-2.268 1.368-1.776 0-2.844-.444-2.844-2.448h-.984c0 1.98.876 3.288 3.828 3.288 2.496 0 3.252-.996 3.252-2.256zm7.038-6.324h-6.852v.84h2.952V526h.972v-7.62h2.928v-.84zm6.051.84v-.84h-4.764v.84h1.896v6.78h-1.896v.84h4.764v-.84h-1.884v-6.78h1.884zm1.496 7.62h.984v-7.476l-.156-.708h.276l4.212 8.184h1.98v-8.46h-.972v7.476l.156.708h-.276l-4.224-8.184h-1.98V526zm8.669-4.236c0 2.496 1.224 4.356 3.708 4.356 2.184 0 3.324-1.404 3.336-4.356h.276l-.156 1.08V526h.984v-3.852c0-.444-.228-.66-.72-.66H324v.792h2.892c.036 2.028-.756 3-2.424 3-1.98 0-2.736-1.44-2.736-3.516 0-2.064 1.032-3.504 3.012-3.504 1.668 0 2.376.912 2.568 2.304h.984c-.252-1.848-1.428-3.144-3.552-3.144-2.448 0-3.996 1.86-3.996 4.344z"/></g><path stroke="url(#C)" d="M370 430.5H85"/><path stroke="url(#D)" d="M370 682.5H85"/><path stroke="url(#E)" d="M370 968.5H85"/><defs><filter id="A" x="-19" y="0" width="465" height="1267" filterUnits="userSpaceOnUse" color-interpolation-filters="sRGB"><feFlood flood-opacity="0"/><feGaussianBlur in="BackgroundImage" stdDeviation="2"/><feComposite in2="SourceAlpha" operator="in" result="B"/><feColorMatrix in="SourceAlpha" values="0 0 0 0 0 0 0 0 0 0 0 0 0 0 0 0 0 0 127 0" result="C"/><feOffset/><feGaussianBlur stdDeviation="22"/><feComposite in2="C" operator="out"/><feColorMatrix values="0 0 0 0 0.803922 0 0 0 0 0.941176 0 0 0 0 1 0 0 0 0.2 0"/><feBlend in2="B"/><feBlend in="SourceGraphic"/></filter><linearGradient id="B" x1="74" y1="660.781" x2="74" y2="-29.342" gradientUnits="userSpaceOnUse"><stop stop-color="#fff"/><stop offset="1" stop-color="#fff" stop-opacity="0"/></linearGradient><linearGradient id="C" x1="226" y1="428.999" x2="359" y2="428.999" gradientUnits="userSpaceOnUse"><stop stop-color="#fff"/><stop offset="1" stop-color="#fff" stop-opacity="0"/></linearGradient><linearGradient id="D" x1="226" y1="680.999" x2="359" y2="680.999" gradientUnits="userSpaceOnUse"><stop stop-color="#fff"/><stop offset="1" stop-color="#fff" stop-opacity="0"/></linearGradient><linearGradient id="E" x1="226" y1="966.999" x2="359" y2="966.999" gradientUnits="userSpaceOnUse"><stop stop-color="#fff"/><stop offset="1" stop-color="#fff" stop-opacity="0"/></linearGradient></defs></svg>