<svg width="23" height="19" viewBox="0 0 23 19" fill="none" xmlns="http://www.w3.org/2000/svg">
<path d="M22.1687 2.57229C21.3374 2.98795 20.506 3.12651 19.5361 3.26506C20.506 2.71084 21.1988 1.87952 21.4759 0.771083C20.6446 1.3253 19.6747 1.60241 18.5663 1.87952C17.7349 1.04819 16.488 0.493975 15.241 0.493975C12.3313 0.493975 10.1145 3.26506 10.8072 6.03614C7.06627 5.89759 3.74096 4.09639 1.38554 1.3253C0.138554 3.40361 0.831325 6.03614 2.77108 7.42169C2.07831 7.42169 1.38554 7.14458 0.692771 6.86747C0.692771 8.94578 2.21687 10.8855 4.29518 11.4398C3.60241 11.5783 2.90964 11.7169 2.21687 11.5783C2.77109 13.3795 4.43373 14.7651 6.51205 14.7651C4.8494 16.012 2.35542 16.7048 0 16.4277C2.07831 17.6747 4.43374 18.506 6.92771 18.506C15.3795 18.506 20.0904 11.4398 19.8133 4.92771C20.7831 4.37349 21.6145 3.54217 22.1687 2.57229Z" fill="white"/>
</svg>
